<svg width="37" height="37" viewBox="0 0 37 37" fill="none" xmlns="http://www.w3.org/2000/svg">
<circle cx="18.5" cy="18.5" r="18.5" fill="#611C16"/>
<g clip-path="url(#clip0_420_1303)">
<path d="M14.5022 32.558C14.7883 32.2777 15.051 32.0198 15.2926 31.7829C12.2705 28.7634 9.25082 25.7451 6.24167 22.7386C6.02003 22.9696 5.75969 23.2404 5.48528 23.5266C5.51577 23.5594 5.58613 23.6368 5.66001 23.7107C6.45275 24.5045 7.24902 25.296 8.03942 26.0922C8.34197 26.3959 8.36425 26.7407 8.11095 26.9928C7.86468 27.2379 7.50232 27.2097 7.2068 26.9154C6.22525 25.9374 5.24487 24.9571 4.26684 23.9757C3.91034 23.618 3.91151 23.3296 4.27153 22.9707C10.5009 16.7395 16.7326 10.5083 22.9644 4.27703C23.3349 3.90649 23.6176 3.90766 23.9916 4.28055C27.2353 7.52281 30.479 10.7662 33.7215 14.0108C34.0921 14.3826 34.0945 14.6687 33.7239 15.0392C27.4933 21.2705 21.2628 27.5017 15.0311 33.7318C14.6722 34.0906 14.3814 34.0906 14.0249 33.7353C13.0433 32.7562 12.0641 31.777 11.0861 30.7956C10.7917 30.5001 10.7636 30.1389 11.0099 29.8915C11.262 29.6382 11.6079 29.6605 11.9105 29.963C12.7736 30.8237 13.6344 31.6879 14.5033 32.5592L14.5022 32.558ZM14.4857 14.4693C17.5078 17.4911 20.5275 20.5118 23.5308 23.5148C26.5141 20.5317 29.5221 17.524 32.5019 14.5432C29.4904 11.532 26.4649 8.50663 23.4557 5.49772C20.4712 8.482 17.4644 11.4897 14.4846 14.4693H14.4857ZM21.6357 25.3875C20.1804 25.6654 18.7286 25.9421 17.2768 26.22C16.7678 26.3174 16.5579 26.1989 16.4055 25.7017C15.6878 23.3683 14.9724 21.0336 14.2559 18.7001C13.9428 17.6776 13.6285 16.6563 13.3224 15.6584C11.2596 17.721 9.20039 19.7813 7.18335 21.7981C10.1866 24.8035 13.2098 27.8277 16.2014 30.8214C17.9945 29.0284 19.8133 27.2097 21.6369 25.3863L21.6357 25.3875ZM22.2549 24.0648C19.7828 21.5929 17.3319 19.1422 14.8833 16.6926C14.888 16.7172 14.8915 16.7618 14.9044 16.8028C15.7218 19.4693 16.5415 22.1358 17.3542 24.8047C17.4046 24.9724 17.4914 24.9923 17.6333 24.963C17.9194 24.9056 18.2056 24.8493 18.4917 24.793C19.7406 24.5502 20.9907 24.3087 22.2561 24.0636L22.2549 24.0648Z" fill="white"/>
<path d="M10.1567 28.415C10.1637 28.7398 9.89518 29.0142 9.57035 29.0142C9.25606 29.0142 8.99338 28.7562 8.98634 28.442C8.97931 28.116 9.24668 27.8428 9.57269 27.8428C9.88697 27.8428 10.1497 28.1007 10.1567 28.415Z" fill="white"/>
<path d="M23.4539 13.5069C23.2932 13.4131 23.1314 13.3568 23.0212 13.2489C22.2143 12.4562 21.4134 11.6565 20.6183 10.8521C20.3146 10.5449 20.3146 10.233 20.6183 9.92692C21.4146 9.12252 22.2143 8.3228 23.0188 7.52777C23.3038 7.24634 23.6357 7.24517 23.923 7.52894C24.7345 8.33101 25.5425 9.13659 26.3434 9.95038C26.626 10.2365 26.6237 10.5437 26.3434 10.8287C25.5343 11.6471 24.7216 12.4609 23.8995 13.2665C23.7905 13.3732 23.6216 13.4201 23.4562 13.5081L23.4539 13.5069ZM25.0605 10.4089C24.521 9.86947 23.9816 9.33007 23.4914 8.83874C22.9696 9.35938 22.4301 9.89761 21.9036 10.4229C22.4125 10.933 22.9473 11.4701 23.4715 11.9954C23.998 11.4689 24.5339 10.9342 25.0605 10.4089Z" fill="white"/>
<path d="M24.4965 14.5252C24.5856 14.3669 24.6372 14.2028 24.7451 14.0925C25.5437 13.2776 26.3517 12.472 27.162 11.6687C27.4575 11.3756 27.7636 11.3721 28.0615 11.6664C28.8741 12.4673 29.6798 13.2752 30.4819 14.0878C30.7528 14.3622 30.7552 14.6976 30.4854 14.9708C29.6774 15.7905 28.8636 16.6043 28.0427 17.411C27.7706 17.6784 27.4528 17.6772 27.1831 17.411C26.3564 16.5972 25.5355 15.7752 24.7228 14.9474C24.6219 14.8442 24.5785 14.6835 24.4965 14.524V14.5252ZM27.6088 12.9481C27.087 13.4722 26.5475 14.0128 26.0456 14.517C26.5686 15.0365 27.1116 15.5747 27.6111 16.0707C28.1236 15.5595 28.6631 15.0201 29.172 14.5111C28.6631 14.0022 28.1283 13.4675 27.6088 12.9481Z" fill="white"/>
<path d="M19.3248 17.6517C19.1641 17.5614 19.0094 17.5122 18.905 17.4102C18.0841 16.6034 17.2702 15.7885 16.4599 14.9711C16.1808 14.6897 16.1749 14.3766 16.4564 14.0917C17.2644 13.272 18.0782 12.4571 18.8991 11.6503C19.1817 11.3736 19.4937 11.3853 19.7786 11.6679C20.5902 12.4711 21.3981 13.2779 22.2003 14.0893C22.4794 14.3719 22.4805 14.6862 22.2014 14.9688C21.3923 15.7873 20.5784 16.6022 19.7564 17.4078C19.6461 17.5157 19.4808 17.5661 19.3236 17.6529L19.3248 17.6517ZM19.2978 16.1015C19.8361 15.5774 20.3896 15.0392 20.9103 14.5314C20.3814 14.0026 19.8455 13.4667 19.3365 12.9566C18.817 13.4831 18.2799 14.0272 17.7557 14.5572C18.2659 15.0685 18.8018 15.6055 19.2967 16.1027L19.2978 16.1015Z" fill="white"/>
<path d="M23.4574 15.5391C23.6333 15.6411 23.8057 15.6997 23.9218 15.8135C24.7298 16.6061 25.5284 17.4082 26.3247 18.2126C26.6272 18.5175 26.6284 18.8259 26.3223 19.1355C25.5343 19.934 24.7403 20.7267 23.9417 21.5158C23.6216 21.8324 23.3155 21.8266 22.9977 21.51C22.2015 20.7185 21.4087 19.9258 20.6183 19.1296C20.3146 18.8235 20.3169 18.5187 20.623 18.2103C21.4134 17.4141 22.2061 16.619 23.0059 15.8322C23.1232 15.7161 23.2874 15.6469 23.4562 15.5391H23.4574ZM21.8919 18.6652C22.4207 19.1976 22.9543 19.7358 23.4598 20.2436C23.9828 19.7159 24.5222 19.1741 25.0546 18.6371C24.541 18.127 24.0027 17.5935 23.4785 17.0728C22.952 17.6017 22.409 18.1446 21.8907 18.6641L21.8919 18.6652Z" fill="white"/>
</g>
<defs>
<clipPath id="clip0_420_1303">
<rect width="30" height="30" fill="white" transform="translate(4 4)"/>
</clipPath>
</defs>
</svg>
