<svg width="37" height="37" viewBox="0 0 37 37" fill="none" xmlns="http://www.w3.org/2000/svg">
<circle cx="18.5" cy="18.5" r="18.5" fill="#611C16"/>
<path d="M25.1738 24.0902V27H12.2932V24.517L18.3843 17.9862C18.9965 17.3051 19.4793 16.7059 19.8328 16.1886C20.1862 15.6627 20.4406 15.1928 20.5958 14.779C20.7596 14.3565 20.8415 13.9556 20.8415 13.5763C20.8415 13.0073 20.7466 12.5201 20.557 12.1149C20.3673 11.7011 20.0871 11.3821 19.7164 11.1579C19.3543 10.9338 18.9059 10.8217 18.3714 10.8217C17.8024 10.8217 17.311 10.9596 16.8971 11.2355C16.4919 11.5114 16.1815 11.8951 15.966 12.3865C15.7591 12.8779 15.6556 13.434 15.6556 14.0548H11.9182C11.9182 12.934 12.1855 11.908 12.72 10.9769C13.2545 10.0371 14.0089 9.29138 14.9831 8.7396C15.9574 8.17921 17.1127 7.89901 18.449 7.89901C19.7681 7.89901 20.8803 8.11454 21.7855 8.54562C22.6994 8.96808 23.3891 9.5802 23.8547 10.382C24.3289 11.1752 24.566 12.1236 24.566 13.2271C24.566 13.8479 24.4668 14.4557 24.2685 15.0506C24.0702 15.6368 23.7857 16.2231 23.415 16.8094C23.0529 17.387 22.6132 17.9733 22.0959 18.5681C21.5786 19.163 21.0053 19.7795 20.3759 20.4175L17.104 24.0902H25.1738Z" fill="white"/>
</svg>
