<svg width="37" height="37" viewBox="0 0 37 37" fill="none" xmlns="http://www.w3.org/2000/svg">
<circle cx="18.5" cy="18.5" r="18.5" fill="#611C16"/>
<path d="M15.7979 18.4259L12.8235 17.7146L13.8968 8.17058H24.4754V11.1838H16.9618L16.4962 15.3609C16.7462 15.2144 17.1256 15.0592 17.6343 14.8954C18.1429 14.7229 18.712 14.6367 19.3413 14.6367C20.2552 14.6367 21.0656 14.779 21.7726 15.0635C22.4796 15.348 23.0788 15.7618 23.5702 16.305C24.0702 16.8482 24.4496 17.512 24.7082 18.2966C24.9669 19.0811 25.0962 19.9691 25.0962 20.9606C25.0962 21.7969 24.9669 22.5944 24.7082 23.3531C24.4496 24.1032 24.0573 24.7756 23.5314 25.3705C23.0055 25.9568 22.3459 26.418 21.5527 26.7543C20.7596 27.0905 19.8198 27.2586 18.7335 27.2586C17.9231 27.2586 17.1385 27.1379 16.3798 26.8965C15.6298 26.6551 14.953 26.2973 14.3495 25.8232C13.7546 25.349 13.2761 24.7756 12.914 24.1032C12.5605 23.4221 12.3751 22.6461 12.3579 21.7754H16.0565C16.1083 22.3099 16.2462 22.7711 16.4704 23.1591C16.7031 23.5385 17.0092 23.8316 17.3886 24.0385C17.7679 24.2454 18.2119 24.3489 18.7206 24.3489C19.1948 24.3489 19.6 24.2584 19.9362 24.0773C20.2725 23.8963 20.544 23.6462 20.7509 23.3272C20.9579 22.9996 21.1087 22.6203 21.2036 22.1892C21.307 21.7495 21.3588 21.2753 21.3588 20.7666C21.3588 20.258 21.2984 19.7967 21.1777 19.3829C21.057 18.969 20.8716 18.6113 20.6216 18.3095C20.3716 18.0077 20.0526 17.775 19.6646 17.6112C19.2853 17.4473 18.8413 17.3654 18.3326 17.3654C17.6429 17.3654 17.1084 17.4732 16.729 17.6888C16.3583 17.9043 16.0479 18.15 15.7979 18.4259Z" fill="white"/>
</svg>
