<svg width="37" height="37" viewBox="0 0 37 37" fill="none" xmlns="http://www.w3.org/2000/svg">
<circle cx="18.5" cy="18.5" r="18.5" fill="#611C16"/>
<path d="M16.1083 15.9688H18.0998C18.7378 15.9688 19.2637 15.861 19.6776 15.6454C20.0914 15.4213 20.3975 15.1109 20.5958 14.7143C20.8027 14.3091 20.9061 13.8392 20.9061 13.3047C20.9061 12.8219 20.8113 12.3951 20.6216 12.0244C20.4406 11.6451 20.1604 11.3519 19.781 11.145C19.4017 10.9295 18.9232 10.8217 18.3455 10.8217C17.8886 10.8217 17.4661 10.9122 17.0782 11.0933C16.6902 11.2743 16.3798 11.5287 16.1471 11.8563C15.9143 12.1839 15.7979 12.5805 15.7979 13.0461H12.0604C12.0604 12.0115 12.3363 11.1105 12.8881 10.3432C13.4485 9.57589 14.1986 8.9767 15.1383 8.54562C16.0781 8.11454 17.1127 7.89901 18.2421 7.89901C19.5181 7.89901 20.6346 8.10592 21.5915 8.51976C22.5485 8.92497 23.2943 9.52416 23.8288 10.3173C24.3634 11.1105 24.6306 12.0934 24.6306 13.2659C24.6306 13.8608 24.4927 14.4384 24.2168 14.9988C23.9409 15.5506 23.5443 16.0507 23.027 16.499C22.5184 16.9387 21.8976 17.2922 21.1648 17.5594C20.432 17.8181 19.6086 17.9474 18.6947 17.9474H16.1083V15.9688ZM16.1083 18.8009V16.874H18.6947C19.7207 16.874 20.6216 16.9904 21.3976 17.2232C22.1735 17.456 22.8244 17.7922 23.3503 18.2319C23.8763 18.663 24.2728 19.176 24.5401 19.7708C24.8074 20.3571 24.941 21.008 24.941 21.7236C24.941 22.603 24.7729 23.3876 24.4367 24.0773C24.1004 24.7584 23.6262 25.336 23.0141 25.8102C22.4106 26.2844 21.7036 26.6465 20.8932 26.8965C20.0828 27.1379 19.1991 27.2586 18.2421 27.2586C17.4489 27.2586 16.6687 27.1509 15.9013 26.9353C15.1426 26.7112 14.4529 26.3793 13.8322 25.9396C13.22 25.4912 12.7286 24.9308 12.3579 24.2584C11.9958 23.5773 11.8147 22.7711 11.8147 21.84H15.5522C15.5522 22.3228 15.6729 22.7539 15.9143 23.1332C16.1557 23.5126 16.4876 23.81 16.9101 24.0256C17.3411 24.2411 17.8196 24.3489 18.3455 24.3489C18.9404 24.3489 19.4491 24.2411 19.8716 24.0256C20.3026 23.8014 20.6302 23.491 20.8544 23.0944C21.0872 22.6892 21.2036 22.2194 21.2036 21.6848C21.2036 20.9951 21.0786 20.4433 20.8285 20.0295C20.5785 19.607 20.2207 19.2967 19.7552 19.0984C19.2896 18.9001 18.7378 18.8009 18.0998 18.8009H16.1083Z" fill="white"/>
</svg>
