<svg width="46" height="50" viewBox="0 0 46 50" fill="none" xmlns="http://www.w3.org/2000/svg">
<g id="Group">
<path id="Vector" d="M36.3684 21.9151C36.3684 30.6751 29.2632 37.7803 20.5032 37.7803C11.7431 37.7803 4.63794 30.6751 4.63794 21.9151C4.63794 13.155 11.7431 6.0498 20.5032 6.0498C21.657 6.0498 22.7805 6.17126 23.866 6.40658C23.365 6.35345 22.8488 6.32308 22.3326 6.32308C14.5822 6.32308 8.29681 12.6085 8.29681 20.3589C8.29681 28.1093 14.5822 34.3947 22.3326 34.3947C30.0831 34.3947 35.9509 28.5117 36.3457 21.118C36.3608 21.3837 36.3684 21.6494 36.3684 21.9151Z" fill="#ECECEC"/>
<path id="Vector_2" d="M38.1978 32.4366C34.6528 38.4183 28.1397 42.4263 20.6853 42.4263C9.45054 42.4263 0.341309 33.3171 0.341309 22.0824C0.341309 17.5733 1.81397 13.3982 4.29623 10.0278C2.50475 13.0491 1.48756 16.5865 1.48756 20.3516C1.48756 31.5864 10.5968 40.6956 21.8315 40.6956C28.542 40.6956 34.4933 37.4466 38.1978 32.429V32.4366Z" fill="#ECECEC"/>
<g id="Group_2">
<path id="Vector_3" d="M30.7888 12.5251L29.5515 13.2766L28.9138 14.5823L28.3673 13.6865L28.2914 13.5575L28.1623 13.3449L26.8643 12.7073L28.1016 11.9558L28.7392 10.6577L29.2402 11.4851L29.4908 11.8951L29.5059 11.9026L30.7888 12.5251Z" fill="#ECECEC"/>
<path id="Vector_4" d="M28.2914 13.5576L28.3749 13.6943C28.3293 13.6639 28.2989 13.6183 28.2914 13.5576Z" fill="#ECECEC"/>
<path id="Vector_5" d="M45.4168 0.493427C42.889 0.926115 40.4447 1.74595 38.213 2.99847C35.26 4.65331 32.7322 7.01412 30.8193 9.79244C30.3638 10.4529 29.9084 11.1664 29.506 11.9027H29.4909L29.2404 11.4852C30.4625 9.25347 32.087 7.21149 33.9696 5.50351C37.1502 2.6341 41.0824 0.789477 45.303 0.0607382C45.5838 0.00760103 45.6977 0.432699 45.4168 0.485836V0.493427Z" fill="#ECECEC"/>
</g>
<path id="Vector_6" d="M20.5031 29.1494C20.7232 30.0072 20.8826 30.8726 21.042 31.7304V34.3113V39.4732C21.042 41.1736 21.042 45.5688 21.042 47.2161C20.8826 48.0738 20.7232 48.9392 20.5106 49.797C20.2981 48.9392 20.1387 48.0738 19.9793 47.2161C19.9793 45.5916 19.9793 41.1584 19.9793 39.4732V34.3113V31.7304C20.1311 30.8726 20.2905 30.0072 20.5106 29.1494H20.5031Z" fill="#ECECEC"/>
</g>
</svg>
