<svg width="64" height="69" viewBox="0 0 64 69" fill="none" xmlns="http://www.w3.org/2000/svg">
<path d="M27.9516 37.4901C27.237 37.2995 26.5412 37.0747 25.9532 36.5944C24.9095 35.7414 24.3402 34.6517 24.3385 33.2996C24.3308 27.6056 24.3351 21.9125 24.3351 16.2185C24.3351 16.0698 24.3351 15.9219 24.3351 15.7501C22.6067 15.4911 21.2536 14.6689 20.3254 13.2031C19.6646 12.1604 19.4099 11.0065 19.5279 9.78433C19.7732 7.25273 21.7306 5.25359 24.3231 4.93223C25.8053 4.74847 27.161 5.15189 28.332 6.0929C29.4894 7.02196 30.1364 8.25186 30.345 9.73134C30.6005 9.73134 30.8253 9.73134 31.0502 9.73134C33.5486 9.73134 36.048 9.72707 38.5465 9.73732C38.8063 9.73818 38.9072 9.66809 38.9756 9.40741C39.5132 7.3476 40.0705 5.29291 40.621 3.23651C40.8176 2.50148 41.0185 2.38096 41.7561 2.57669C42.3972 2.74677 43.0383 2.916 43.676 3.0972C44.1777 3.23993 44.3153 3.49549 44.1794 4.00574C43.7101 5.77325 43.2383 7.53905 42.7673 9.3057C42.7323 9.43733 42.6998 9.56981 42.6596 9.72963C43.1366 9.72963 43.5896 9.75015 44.0384 9.7228C44.3897 9.70143 44.6444 9.81852 44.8316 10.1057V33.8662C44.8077 33.9218 44.7718 33.9748 44.7615 34.0329C44.5623 35.0987 44.0213 35.9508 43.1768 36.6235C42.5964 37.085 41.9117 37.2978 41.2151 37.4876H27.9516V37.4901ZM43.6067 32.6457V19.6509C43.499 19.6714 43.4118 19.6817 43.3281 19.7056C40.3526 20.5569 37.4096 20.4578 34.5034 19.3971C31.6673 18.3612 28.8064 18.2433 25.9053 19.1082C25.6078 19.1971 25.5318 19.3304 25.5326 19.6304C25.5437 23.8415 25.5403 28.0526 25.5403 32.2637V32.6466H43.6076L43.6067 32.6457ZM36.4788 18.7253C37.1806 16.1031 37.8661 13.5373 38.555 10.963H25.5608V17.921C25.6814 17.8928 25.7797 17.8749 25.8754 17.8475C28.3166 17.1595 30.7732 17.1005 33.2298 17.7347C34.3051 18.0125 35.3573 18.38 36.4788 18.7244V18.7253ZM43.5315 33.8927H25.636C25.9335 35.2816 27.0866 36.2671 28.5183 36.2739C32.5622 36.2944 36.6062 36.2944 40.6492 36.2739C42.0827 36.2662 43.2306 35.285 43.5315 33.8927ZM24.3188 13.3125C22.6597 12.7912 21.8092 11.6125 21.9289 10.0168C22.0281 8.69289 23.17 7.50315 24.53 7.33392C25.2198 7.24845 25.8788 7.37067 26.4814 7.73477C27.2379 8.19204 27.6952 8.86981 27.9106 9.7322H29.0765C28.8218 7.62879 26.8473 6.0006 24.7573 6.1194C22.4879 6.24846 20.7254 8.0852 20.7194 10.3279C20.7134 12.3886 22.4042 14.3407 24.3188 14.4672V13.3125ZM42.8742 4.15617C42.493 4.05275 42.1254 3.95275 41.7296 3.84591C40.3808 8.88263 39.0414 13.8869 37.696 18.9116C37.9883 18.9458 38.2499 18.9697 38.5089 19.0099C38.7901 19.0535 38.9209 18.968 38.9995 18.6655C39.5637 16.4963 40.1517 14.3339 40.7313 12.1689C41.4433 9.50998 42.1536 6.85016 42.8742 4.15617ZM43.6272 10.9373C43.2699 10.9373 42.9579 10.951 42.6477 10.933C42.4058 10.9185 42.3075 10.9963 42.2434 11.2442C41.7852 13.0125 41.3048 14.7749 40.8321 16.539C40.6142 17.3527 40.3962 18.1655 40.1697 19.0116C41.3142 18.933 42.3827 18.7407 43.417 18.3911C43.5161 18.3578 43.617 18.1561 43.6187 18.0304C43.6341 16.9133 43.6281 15.7954 43.6281 14.6775C43.6281 13.4484 43.6281 12.2185 43.6281 10.9356L43.6272 10.9373ZM26.5934 9.73134C26.3045 8.92964 25.507 8.4305 24.7505 8.53819C23.8291 8.66981 23.1546 9.39288 23.1324 10.2877C23.1145 11.0245 23.6461 11.8535 24.3351 11.9672C24.3351 11.451 24.3325 10.9382 24.3351 10.4262C24.3385 9.94758 24.5462 9.73647 25.0189 9.73305C25.5326 9.72878 26.0463 9.7322 26.5925 9.7322L26.5934 9.73134Z" fill="#D1D1D1"/>
<path d="M41.8177 24.4996C41.8348 24.9278 41.6681 25.2851 41.375 25.5825C40.7758 26.191 40.1783 26.8021 39.562 27.3936C38.9243 28.0064 38.0696 28.003 37.437 27.3902C36.8242 26.7953 36.2198 26.191 35.6258 25.5774C35.0163 24.9466 35.018 24.0825 35.6301 23.4509C36.2241 22.8372 36.8276 22.2329 37.4413 21.6381C38.061 21.0381 38.9158 21.0244 39.5381 21.6167C40.174 22.2235 40.8065 22.8372 41.3946 23.4893C41.6314 23.7517 41.7442 24.1261 41.9143 24.4492C41.8818 24.4663 41.8502 24.4833 41.8177 24.5004V24.4996ZM40.6364 24.5261C40.5646 24.4227 40.5142 24.321 40.439 24.244C39.8919 23.6893 39.3372 23.1432 38.7927 22.5868C38.5952 22.3851 38.4269 22.368 38.2217 22.5791C37.6772 23.1363 37.1268 23.6876 36.5703 24.2321C36.3626 24.4355 36.3694 24.603 36.5737 24.803C37.1216 25.3389 37.6644 25.8799 38.1978 26.4295C38.408 26.6457 38.5816 26.662 38.7978 26.4397C39.3321 25.8902 39.8791 25.3543 40.4185 24.809C40.4954 24.7312 40.5544 24.6346 40.6373 24.5261H40.6364Z" fill="#D1D1D1"/>
<path d="M30.6596 30.8524C30.2553 30.8686 29.898 30.7037 29.6005 30.4097C28.9928 29.8088 28.3842 29.2097 27.7901 28.596C27.1789 27.9644 27.1789 27.1012 27.7901 26.4695C28.3842 25.8559 28.9876 25.2516 29.6014 24.6567C30.2322 24.0456 31.0895 24.0439 31.7263 24.6567C32.3417 25.249 32.9452 25.8542 33.5376 26.4695C34.1504 27.1063 34.1513 27.9584 33.5376 28.596C32.9461 29.2114 32.3358 29.8097 31.728 30.4097C31.4408 30.6926 31.0963 30.8584 30.6596 30.8524ZM32.7862 27.5422C32.7341 27.4533 32.7042 27.3661 32.646 27.3071C32.0639 26.7174 31.4767 26.1311 30.8903 25.5456C30.7177 25.373 30.5604 25.4208 30.404 25.5789C29.8467 26.1413 29.2885 26.702 28.7252 27.2576C28.5346 27.4456 28.5244 27.6088 28.7192 27.8003C29.2825 28.3558 29.8424 28.9157 30.3971 29.4798C30.5895 29.6755 30.7544 29.6618 30.9408 29.4729C31.4964 28.9088 32.0588 28.3524 32.6144 27.7892C32.6819 27.7208 32.7264 27.6294 32.7862 27.5413V27.5422Z" fill="#D1D1D1"/>
<path d="M8.71094 59.6694H5.82812L5.8125 58.4585H8.42969C8.86198 58.4585 9.23958 58.3856 9.5625 58.2397C9.88542 58.0939 10.1354 57.8856 10.3125 57.6147C10.4948 57.3387 10.5859 57.0106 10.5859 56.6304C10.5859 56.2137 10.5052 55.8752 10.3438 55.6147C10.1875 55.3491 9.94531 55.1564 9.61719 55.0366C9.29427 54.9116 8.88281 54.8491 8.38281 54.8491H6.16406V64.9897H4.65625V53.6147H8.38281C8.96615 53.6147 9.48698 53.6746 9.94531 53.7944C10.4036 53.909 10.7917 54.0913 11.1094 54.3413C11.4323 54.5861 11.6771 54.8986 11.8438 55.2788C12.0104 55.659 12.0938 56.1147 12.0938 56.646C12.0938 57.1147 11.974 57.5392 11.7344 57.9194C11.4948 58.2944 11.1615 58.6017 10.7344 58.8413C10.3125 59.0809 9.81771 59.2345 9.25 59.3022L8.71094 59.6694ZM8.64062 64.9897H5.23438L6.08594 63.7632H8.64062C9.11979 63.7632 9.52604 63.6799 9.85938 63.5132C10.1979 63.3465 10.4557 63.1121 10.6328 62.8101C10.8099 62.5028 10.8984 62.1408 10.8984 61.7241C10.8984 61.3022 10.8229 60.9377 10.6719 60.6304C10.5208 60.3231 10.2839 60.0861 9.96094 59.9194C9.63802 59.7528 9.22135 59.6694 8.71094 59.6694H6.5625L6.57812 58.4585H9.51562L9.83594 58.896C10.3828 58.9429 10.8464 59.0991 11.2266 59.3647C11.6068 59.6252 11.8958 59.9585 12.0938 60.3647C12.2969 60.771 12.3984 61.2189 12.3984 61.7085C12.3984 62.4168 12.2422 63.0158 11.9297 63.5054C11.6224 63.9897 11.1875 64.3595 10.625 64.6147C10.0625 64.8647 9.40104 64.9897 8.64062 64.9897ZM17.9141 65.146C17.3255 65.146 16.7917 65.047 16.3125 64.8491C15.8385 64.646 15.4297 64.3621 15.0859 63.9976C14.7474 63.633 14.487 63.2007 14.3047 62.7007C14.1224 62.2007 14.0312 61.6538 14.0312 61.0601V60.7319C14.0312 60.0444 14.1328 59.4325 14.3359 58.896C14.5391 58.3543 14.8151 57.896 15.1641 57.521C15.513 57.146 15.9089 56.8621 16.3516 56.6694C16.7943 56.4767 17.2526 56.3804 17.7266 56.3804C18.3307 56.3804 18.8516 56.4845 19.2891 56.6929C19.7318 56.9012 20.0938 57.1929 20.375 57.5679C20.6562 57.9377 20.8646 58.3752 21 58.8804C21.1354 59.3804 21.2031 59.9272 21.2031 60.521V61.1694H14.8906V59.9897H19.7578V59.8804C19.737 59.5054 19.6589 59.1408 19.5234 58.7866C19.3932 58.4325 19.1849 58.1408 18.8984 57.9116C18.612 57.6825 18.2214 57.5679 17.7266 57.5679C17.3984 57.5679 17.0964 57.6382 16.8203 57.7788C16.5443 57.9142 16.3073 58.1174 16.1094 58.3882C15.9115 58.659 15.7578 58.9897 15.6484 59.3804C15.5391 59.771 15.4844 60.2215 15.4844 60.7319V61.0601C15.4844 61.4611 15.5391 61.8387 15.6484 62.1929C15.763 62.5418 15.9271 62.8491 16.1406 63.1147C16.3594 63.3804 16.6224 63.5887 16.9297 63.7397C17.2422 63.8908 17.5964 63.9663 17.9922 63.9663C18.5026 63.9663 18.9349 63.8621 19.2891 63.6538C19.6432 63.4455 19.9531 63.1668 20.2188 62.8179L21.0938 63.5132C20.9115 63.7892 20.6797 64.0522 20.3984 64.3022C20.1172 64.5522 19.7708 64.7554 19.3594 64.9116C18.9531 65.0679 18.4714 65.146 17.9141 65.146ZM22.8828 52.9897H24.3359V63.3491L24.2109 64.9897H22.8828V52.9897ZM30.0469 60.6929V60.8569C30.0469 61.4715 29.974 62.0418 29.8281 62.5679C29.6823 63.0887 29.4688 63.5418 29.1875 63.9272C28.9062 64.3127 28.5625 64.6121 28.1562 64.8257C27.75 65.0392 27.2839 65.146 26.7578 65.146C26.2214 65.146 25.75 65.0549 25.3438 64.8726C24.9427 64.6851 24.6042 64.4168 24.3281 64.0679C24.0521 63.7189 23.8307 63.297 23.6641 62.8022C23.5026 62.3075 23.3906 61.7502 23.3281 61.1304V60.4116C23.3906 59.7866 23.5026 59.2267 23.6641 58.7319C23.8307 58.2371 24.0521 57.8153 24.3281 57.4663C24.6042 57.1121 24.9427 56.8439 25.3438 56.6616C25.7448 56.4741 26.2109 56.3804 26.7422 56.3804C27.2734 56.3804 27.7448 56.4845 28.1562 56.6929C28.5677 56.896 28.9115 57.1877 29.1875 57.5679C29.4688 57.9481 29.6823 58.4038 29.8281 58.9351C29.974 59.4611 30.0469 60.047 30.0469 60.6929ZM28.5938 60.8569V60.6929C28.5938 60.271 28.5547 59.8752 28.4766 59.5054C28.3984 59.1304 28.2734 58.8022 28.1016 58.521C27.9297 58.2345 27.7031 58.0106 27.4219 57.8491C27.1406 57.6825 26.7943 57.5991 26.3828 57.5991C26.0182 57.5991 25.7005 57.6616 25.4297 57.7866C25.1641 57.9116 24.9375 58.0809 24.75 58.2944C24.5625 58.5028 24.4089 58.7424 24.2891 59.0132C24.1745 59.2788 24.0885 59.5549 24.0312 59.8413V61.7241C24.1146 62.0887 24.25 62.4403 24.4375 62.7788C24.6302 63.1121 24.8854 63.3856 25.2031 63.5991C25.526 63.8127 25.9245 63.9194 26.3984 63.9194C26.7891 63.9194 27.1224 63.8413 27.3984 63.6851C27.6797 63.5236 27.9062 63.3022 28.0781 63.021C28.2552 62.7397 28.3854 62.4142 28.4688 62.0444C28.5521 61.6746 28.5938 61.2788 28.5938 60.8569ZM33.4453 56.5366V64.9897H31.9922V56.5366H33.4453ZM31.8828 54.2944C31.8828 54.0601 31.9531 53.8621 32.0938 53.7007C32.2396 53.5392 32.4531 53.4585 32.7344 53.4585C33.0104 53.4585 33.2214 53.5392 33.3672 53.7007C33.5182 53.8621 33.5938 54.0601 33.5938 54.2944C33.5938 54.5184 33.5182 54.7111 33.3672 54.8726C33.2214 55.0288 33.0104 55.1069 32.7344 55.1069C32.4531 55.1069 32.2396 55.0288 32.0938 54.8726C31.9531 54.7111 31.8828 54.5184 31.8828 54.2944ZM41.0938 63.3491V52.9897H42.5469V64.9897H41.2188L41.0938 63.3491ZM35.4062 60.8569V60.6929C35.4062 60.047 35.4844 59.4611 35.6406 58.9351C35.8021 58.4038 36.0286 57.9481 36.3203 57.5679C36.6172 57.1877 36.9688 56.896 37.375 56.6929C37.7865 56.4845 38.2448 56.3804 38.75 56.3804C39.2812 56.3804 39.7448 56.4741 40.1406 56.6616C40.5417 56.8439 40.8802 57.1121 41.1562 57.4663C41.4375 57.8153 41.6589 58.2371 41.8203 58.7319C41.9818 59.2267 42.0938 59.7866 42.1562 60.4116V61.1304C42.099 61.7502 41.987 62.3075 41.8203 62.8022C41.6589 63.297 41.4375 63.7189 41.1562 64.0679C40.8802 64.4168 40.5417 64.6851 40.1406 64.8726C39.7396 65.0549 39.2708 65.146 38.7344 65.146C38.2396 65.146 37.7865 65.0392 37.375 64.8257C36.9688 64.6121 36.6172 64.3127 36.3203 63.9272C36.0286 63.5418 35.8021 63.0887 35.6406 62.5679C35.4844 62.0418 35.4062 61.4715 35.4062 60.8569ZM36.8594 60.6929V60.8569C36.8594 61.2788 36.901 61.6746 36.9844 62.0444C37.0729 62.4142 37.2083 62.7397 37.3906 63.021C37.5729 63.3022 37.8047 63.5236 38.0859 63.6851C38.3672 63.8413 38.7031 63.9194 39.0938 63.9194C39.5729 63.9194 39.9661 63.8179 40.2734 63.6147C40.5859 63.4116 40.8359 63.1434 41.0234 62.8101C41.2109 62.4767 41.3568 62.1147 41.4609 61.7241V59.8413C41.3984 59.5549 41.3073 59.2788 41.1875 59.0132C41.0729 58.7424 40.9219 58.5028 40.7344 58.2944C40.5521 58.0809 40.3255 57.9116 40.0547 57.7866C39.7891 57.6616 39.474 57.5991 39.1094 57.5991C38.7135 57.5991 38.3724 57.6825 38.0859 57.8491C37.8047 58.0106 37.5729 58.2345 37.3906 58.521C37.2083 58.8022 37.0729 59.1304 36.9844 59.5054C36.901 59.8752 36.8594 60.271 36.8594 60.6929ZM49.7812 63.5444V59.1929C49.7812 58.8595 49.7135 58.5705 49.5781 58.3257C49.4479 58.0757 49.25 57.883 48.9844 57.7476C48.7188 57.6121 48.3906 57.5444 48 57.5444C47.6354 57.5444 47.3151 57.6069 47.0391 57.7319C46.7682 57.8569 46.5547 58.021 46.3984 58.2241C46.2474 58.4272 46.1719 58.646 46.1719 58.8804H44.7266C44.7266 58.5783 44.8047 58.2788 44.9609 57.9819C45.1172 57.6851 45.3411 57.4168 45.6328 57.1772C45.9297 56.9325 46.2839 56.7397 46.6953 56.5991C47.112 56.4533 47.5755 56.3804 48.0859 56.3804C48.7005 56.3804 49.2422 56.4845 49.7109 56.6929C50.1849 56.9012 50.5547 57.2163 50.8203 57.6382C51.0911 58.0549 51.2266 58.5783 51.2266 59.2085V63.146C51.2266 63.4272 51.25 63.7267 51.2969 64.0444C51.349 64.3621 51.4245 64.6356 51.5234 64.8647V64.9897H50.0156C49.9427 64.8231 49.8854 64.6017 49.8438 64.3257C49.8021 64.0444 49.7812 63.784 49.7812 63.5444ZM50.0312 59.8647L50.0469 60.8804H48.5859C48.1745 60.8804 47.8073 60.9142 47.4844 60.9819C47.1615 61.0444 46.8906 61.1408 46.6719 61.271C46.4531 61.4012 46.2865 61.5653 46.1719 61.7632C46.0573 61.9559 46 62.1825 46 62.4429C46 62.7085 46.0599 62.9507 46.1797 63.1694C46.2995 63.3882 46.4792 63.5627 46.7188 63.6929C46.9635 63.8179 47.263 63.8804 47.6172 63.8804C48.0599 63.8804 48.4505 63.7866 48.7891 63.5991C49.1276 63.4116 49.3958 63.1825 49.5938 62.9116C49.7969 62.6408 49.9062 62.3778 49.9219 62.1226L50.5391 62.8179C50.5026 63.0366 50.4036 63.2788 50.2422 63.5444C50.0807 63.8101 49.8646 64.0653 49.5938 64.3101C49.3281 64.5496 49.0104 64.7502 48.6406 64.9116C48.276 65.0679 47.8646 65.146 47.4062 65.146C46.8333 65.146 46.3307 65.034 45.8984 64.8101C45.4714 64.5861 45.138 64.2866 44.8984 63.9116C44.6641 63.5314 44.5469 63.1069 44.5469 62.6382C44.5469 62.1851 44.6354 61.7866 44.8125 61.4429C44.9896 61.0939 45.2448 60.8049 45.5781 60.5757C45.9115 60.3413 46.3125 60.1642 46.7812 60.0444C47.25 59.9246 47.7734 59.8647 48.3516 59.8647H50.0312ZM58.4219 62.7476C58.4219 62.5392 58.375 62.3465 58.2812 62.1694C58.1927 61.9871 58.0078 61.8231 57.7266 61.6772C57.4505 61.5262 57.0339 61.396 56.4766 61.2866C56.0078 61.1877 55.5833 61.0705 55.2031 60.9351C54.8281 60.7996 54.5078 60.6356 54.2422 60.4429C53.9818 60.2502 53.7812 60.0236 53.6406 59.7632C53.5 59.5028 53.4297 59.1981 53.4297 58.8491C53.4297 58.5158 53.5026 58.2007 53.6484 57.9038C53.7995 57.6069 54.0104 57.3439 54.2812 57.1147C54.5573 56.8856 54.888 56.7059 55.2734 56.5757C55.6589 56.4455 56.0885 56.3804 56.5625 56.3804C57.2396 56.3804 57.8177 56.5002 58.2969 56.7397C58.776 56.9793 59.1432 57.2996 59.3984 57.7007C59.6536 58.0965 59.7812 58.5366 59.7812 59.021H58.3359C58.3359 58.7866 58.2656 58.5601 58.125 58.3413C57.9896 58.1174 57.7891 57.9325 57.5234 57.7866C57.263 57.6408 56.9427 57.5679 56.5625 57.5679C56.1615 57.5679 55.8359 57.6304 55.5859 57.7554C55.3411 57.8752 55.1615 58.0288 55.0469 58.2163C54.9375 58.4038 54.8828 58.6017 54.8828 58.8101C54.8828 58.9663 54.9089 59.1069 54.9609 59.2319C55.0182 59.3517 55.1172 59.4637 55.2578 59.5679C55.3984 59.6668 55.5964 59.7606 55.8516 59.8491C56.1068 59.9377 56.4323 60.0262 56.8281 60.1147C57.5208 60.271 58.0911 60.4585 58.5391 60.6772C58.987 60.896 59.3203 61.1642 59.5391 61.4819C59.7578 61.7996 59.8672 62.1851 59.8672 62.6382C59.8672 63.008 59.7891 63.3465 59.6328 63.6538C59.4818 63.9611 59.2604 64.2267 58.9688 64.4507C58.6823 64.6694 58.3385 64.8413 57.9375 64.9663C57.5417 65.0861 57.0964 65.146 56.6016 65.146C55.8568 65.146 55.2266 65.0132 54.7109 64.7476C54.1953 64.4819 53.8047 64.1382 53.5391 63.7163C53.2734 63.2944 53.1406 62.8491 53.1406 62.3804H54.5938C54.6146 62.7762 54.7292 63.0913 54.9375 63.3257C55.1458 63.5549 55.401 63.7189 55.7031 63.8179C56.0052 63.9116 56.3047 63.9585 56.6016 63.9585C56.9974 63.9585 57.3281 63.9064 57.5938 63.8022C57.8646 63.6981 58.0703 63.5549 58.2109 63.3726C58.3516 63.1903 58.4219 62.9819 58.4219 62.7476Z" fill="#D1D1D1"/>
</svg>
