<svg width="37" height="37" viewBox="0 0 37 37" fill="none" xmlns="http://www.w3.org/2000/svg">
<circle cx="18.5" cy="18.5" r="18.5" fill="#611C16"/>
<path d="M19.7764 4.33398C20.2364 4.43195 20.7039 4.50263 21.1553 4.63159C24.2293 5.51138 26.4253 8.07758 26.7979 11.2483C26.8637 11.8069 26.8029 12.3792 26.8203 12.9452C26.8246 13.0829 26.8699 13.2509 26.9579 13.3495C28.2382 14.7829 27.5432 17.0075 25.6664 17.4285C25.4705 17.4725 25.3955 17.5537 25.3434 17.7242C23.8796 22.5095 22.4126 27.294 20.9476 32.0792C20.6407 33.0818 19.9804 33.6547 19.1055 33.6671C18.1854 33.6801 17.4625 33.163 17.1848 32.2721C16.708 30.7419 16.2392 29.2092 15.7699 27.6766C14.7556 24.3664 13.7419 21.0555 12.7325 17.7435C12.6767 17.5612 12.5998 17.4756 12.3927 17.4254C11.384 17.1805 10.7479 16.5425 10.5079 15.522C10.4943 15.4631 10.4676 15.4067 10.4465 15.3496C10.4465 15.1227 10.4465 14.8958 10.4465 14.6689C10.604 14.1462 10.7962 13.6446 11.2023 13.2509C11.2587 13.1957 11.2513 13.063 11.2544 12.9657C11.2749 12.3091 11.2122 11.6389 11.3207 10.9978C11.8415 7.92568 13.5875 5.83936 16.5077 4.76737C17.0794 4.55781 17.6975 4.47535 18.2939 4.33398C18.7881 4.33398 19.2822 4.33398 19.777 4.33398H19.7764ZM25.9957 12.0438C25.943 11.6395 25.9188 11.1212 25.8035 10.6233C24.977 7.05581 21.748 4.76737 18.121 5.26647C15.2745 5.6577 13.3872 7.31435 12.4299 10.017C12.0809 11.0015 12.0226 12.0289 12.1633 13.0661C12.1999 13.334 12.2129 13.5808 11.9525 13.7885C11.237 14.3595 11.1298 15.3261 11.6803 16.0118C12.2427 16.7124 13.2142 16.8054 13.9347 16.2269C14.2868 15.9442 14.4908 15.9758 14.7438 16.3497C15.2776 17.1414 16.1717 17.3795 17.0136 16.935C17.266 16.8017 17.4638 16.8252 17.6975 16.9771C18.5897 17.5593 19.4937 17.5568 20.3827 16.9697C20.619 16.8135 20.8186 16.8104 21.0672 16.9412C21.8925 17.3758 22.7921 17.1371 23.3154 16.364C23.5814 15.9709 23.7773 15.9405 24.1443 16.2356C24.8468 16.8011 25.8128 16.7093 26.3776 16.023C26.9325 15.349 26.8289 14.3657 26.1283 13.7934C25.9399 13.6397 25.8636 13.4704 25.8903 13.2323C25.9299 12.8746 25.9547 12.515 25.995 12.0438H25.9957ZM16.38 20.983C17.0112 20.5577 17.6188 20.1479 18.2468 19.7244C17.6547 19.3251 17.106 18.9463 16.5449 18.5861C16.4662 18.5352 16.3012 18.5284 16.225 18.5774C15.6552 18.9426 15.0984 19.3263 14.5107 19.7225C15.1406 20.1472 15.7513 20.5589 16.38 20.983ZM17.1686 25.0905C17.762 25.4904 18.3299 25.8779 18.9053 26.2537C18.966 26.2934 19.0938 26.3033 19.1508 26.2661C19.7317 25.8872 20.3046 25.4954 20.9054 25.0899C20.299 24.6813 19.7218 24.2895 19.139 23.9069C19.0888 23.8741 18.9778 23.879 18.9257 23.9138C18.3429 24.2963 17.7663 24.6882 17.1686 25.0905ZM19.8285 19.725C20.4764 20.1609 21.0871 20.5713 21.6978 20.9818C22.3258 20.5583 22.9347 20.1472 23.5646 19.7225C22.9775 19.327 22.4294 18.9469 21.867 18.5892C21.7833 18.5358 21.606 18.5377 21.5217 18.5923C20.96 18.9512 20.4119 19.3307 19.8278 19.725H19.8285ZM20.906 21.5125C20.3108 21.112 19.7429 20.7251 19.1675 20.3494C19.1068 20.3097 18.9791 20.301 18.922 20.3382C18.3411 20.7176 17.7682 21.1095 17.1693 21.5137C17.7645 21.9136 18.333 22.2993 18.9078 22.675C18.9679 22.7141 19.0919 22.7252 19.1477 22.6886C19.7317 22.3086 20.3071 21.9155 20.9066 21.5125H20.906ZM20.906 28.6686C20.2904 28.255 19.7051 27.8589 19.1148 27.4695C19.077 27.4441 18.9921 27.4466 18.953 27.4726C18.3634 27.8626 17.7781 28.2581 17.1693 28.6686C17.7731 29.0753 18.3411 29.4628 18.9158 29.8379C18.9741 29.8757 19.1 29.8745 19.1589 29.8361C19.7336 29.4616 20.3009 29.0759 20.9054 28.6692L20.906 28.6686ZM19.826 23.3024C20.423 23.7042 20.9841 24.083 21.5471 24.4594C21.5967 24.4922 21.6841 24.5462 21.7071 24.5288C21.9941 24.3106 22.3389 24.1271 22.5329 23.8418C22.7183 23.569 22.8863 23.1437 22.8001 22.8672C22.7202 22.6105 22.2955 22.4611 22.0214 22.2658C21.9631 22.2243 21.9061 22.1647 21.8404 22.1517C21.7443 22.1331 21.6172 22.1108 21.5459 22.1567C20.9767 22.5231 20.4181 22.905 19.826 23.3031V23.3024ZM18.2481 23.3018C17.651 22.9013 17.0911 22.5206 16.5244 22.1505C16.4606 22.1089 16.3353 22.0829 16.2814 22.117C15.9274 22.3427 15.5858 22.5876 15.2398 22.8257C15.3303 23.1586 15.4215 23.4915 15.512 23.8245C15.5176 23.8443 15.5151 23.8728 15.5281 23.8828C15.8046 24.1004 16.0811 24.3186 16.3651 24.5257C16.3893 24.5437 16.4761 24.4891 16.5257 24.4563C17.0887 24.0805 17.6504 23.7023 18.2481 23.3006V23.3018ZM19.0504 32.7991C19.5464 32.7904 19.9438 32.4636 20.0665 31.9292C20.0882 31.8343 20.025 31.6707 19.9463 31.6111C19.6604 31.3948 19.3535 31.0587 19.0516 31.055C18.7521 31.0513 18.4483 31.3948 18.147 31.587C18.1123 31.6087 18.0676 31.6266 18.0484 31.6589C18.0156 31.7141 17.9759 31.781 17.9808 31.8399C18.0236 32.3688 18.5202 32.8096 19.051 32.7997L19.0504 32.7991ZM18.2468 26.8805C17.6374 26.4701 17.0515 26.072 16.4581 25.6845C16.4122 25.6547 16.3012 25.6814 16.2479 25.7198C16.1965 25.7577 16.14 25.8562 16.1549 25.9077C16.3459 26.5569 16.5492 27.2023 16.7588 27.8781C17.2629 27.5396 17.7397 27.2196 18.2462 26.8799L18.2468 26.8805ZM19.826 26.8805C20.3375 27.2227 20.8124 27.5408 21.314 27.8762C21.5335 27.1626 21.7406 26.4874 21.9724 25.7329C21.8174 25.7223 21.6624 25.6609 21.5794 25.7136C20.9978 26.0819 20.4317 26.4732 19.826 26.8805ZM15.5002 17.9915C15.1995 17.8272 14.8684 17.7367 14.6768 17.5221C14.3259 17.1284 13.993 17.1545 13.6024 17.3963C13.5862 17.4062 13.5738 17.4229 13.5534 17.4428C13.709 17.9431 13.8659 18.4466 14.032 18.9798C14.5466 18.6338 15.0209 18.3145 15.5008 17.9921L15.5002 17.9915ZM22.621 18.0262C23.0556 18.3176 23.5299 18.6357 24.0414 18.9785C24.2076 18.4366 24.3638 17.9276 24.5182 17.4242C24.3173 17.3361 24.1518 17.2543 23.9788 17.1941C23.918 17.1731 23.8219 17.1811 23.7698 17.2165C23.3861 17.4787 23.0085 17.7509 22.621 18.0262ZM20.8812 17.9493C20.8707 17.9171 20.8608 17.8855 20.8502 17.8532C20.7485 17.8706 20.6357 17.865 20.547 17.909C19.5302 18.4143 18.5196 18.4112 17.5053 17.9003C17.4259 17.8607 17.3168 17.8805 17.2213 17.8731L17.2027 17.9599C17.8128 18.3703 18.4229 18.7801 19.038 19.1937C19.6623 18.7721 20.2718 18.361 20.8806 17.9493H20.8812ZM14.6899 20.9105C14.6719 20.9272 14.6539 20.9439 14.6353 20.9607C14.7333 21.2769 14.8312 21.5925 14.9403 21.9452C15.1716 21.7915 15.3688 21.66 15.5895 21.5131C15.2652 21.2961 14.9775 21.1033 14.6899 20.9105ZM23.4332 20.9594C23.4152 20.9433 23.3966 20.9272 23.3786 20.9117C23.0891 21.1076 22.8001 21.3035 22.4839 21.5174C22.7183 21.6675 22.9186 21.7958 23.1374 21.9359C23.2453 21.5801 23.3389 21.2701 23.4332 20.9601V20.9594ZM18.2481 30.4561C17.9579 30.2639 17.7111 30.1008 17.465 29.9377C17.4452 29.9526 17.4253 29.9675 17.4055 29.9824C17.4892 30.257 17.5729 30.5317 17.6684 30.8442C17.8655 30.7121 18.0304 30.6012 18.2481 30.4554V30.4561ZM19.8266 30.4579C20.0399 30.5993 20.2067 30.7097 20.4057 30.8417C20.4993 30.5274 20.5811 30.2515 20.663 29.9762C20.6425 29.9638 20.6227 29.9514 20.6022 29.9396C20.3592 30.102 20.1155 30.2651 19.8266 30.4585V30.4579Z" fill="white"/>
<path d="M14.9564 8.38068C14.8721 8.54932 14.8256 8.6603 14.7636 8.76198C14.554 9.10236 14.3314 9.43531 14.1287 9.77941C13.9545 10.0752 13.7164 10.1837 13.4764 10.0504C13.2501 9.92511 13.1819 9.66967 13.3475 9.38447C13.5887 8.96782 13.841 8.55428 14.1324 8.17297C14.2161 8.06323 14.4641 8.00743 14.6117 8.04091C14.7425 8.07005 14.8392 8.25668 14.957 8.38006L14.9564 8.38068Z" fill="white"/>
</svg>
