<svg width="78" height="69" viewBox="0 0 78 69" fill="none" xmlns="http://www.w3.org/2000/svg">
<path d="M57.2714 23.7656C57.1321 24.2156 57.0439 24.6894 56.8451 25.1108C55.9569 26.9942 54.4491 27.9783 52.3696 28.0874C52.266 28.093 52.1617 28.0874 52.0595 28.0874C51.6556 29.0939 51.0774 29.9485 50.2564 30.6372C49.1007 31.6051 47.7659 32.0447 46.2687 32.0391C45.1747 32.0349 44.0806 32.0307 42.9866 32.0475C42.8382 32.0496 42.6429 32.1322 42.5505 32.2441C41.2906 33.7762 39.3391 33.912 37.9014 32.5486C37.5136 32.1812 37.1587 31.7738 36.7478 31.4351C36.2152 30.9955 35.6174 30.6379 34.8901 30.682C34.3666 30.7135 33.8549 30.7639 33.3684 31.0648C32.6944 31.4813 31.9895 31.342 31.3211 30.9514C30.7653 30.626 30.1458 30.6057 29.5466 30.7366C28.7886 30.9024 28.1803 31.3546 27.6596 31.9264C27.1724 32.4604 26.667 32.9727 25.9811 33.2611C24.4222 33.9155 22.6674 33.1477 21.9353 31.4785C21.4474 30.3663 21.4215 29.2059 21.6049 28.0273C21.7827 26.8843 22.1614 25.8051 22.6331 24.7531C22.7598 24.4711 22.8592 24.1722 22.9313 23.8719C23.2526 22.5302 24.1654 21.731 25.3637 21.1892C26.3513 20.7427 27.4027 20.5747 28.4722 20.4858C28.6045 20.4746 28.7711 20.4543 28.8558 20.371C29.6691 19.5732 30.6736 19.2211 31.776 19.1252C33.0605 19.0132 34.3085 19.1357 35.434 19.8489C35.5488 19.9217 35.6601 20.0008 35.8267 20.1128C35.8267 19.5116 35.8267 18.96 35.8267 18.4085C35.8281 17.1151 36.5659 16.3753 37.8615 16.3753C42.0283 16.3739 46.1952 16.3746 50.3628 16.3753C51.5303 16.3753 52.2135 16.9513 52.4011 18.0712C52.9358 18.1958 53.4846 18.2615 53.9865 18.4512C55.7819 19.1301 56.8577 20.4326 57.2084 22.3259C57.2161 22.3672 57.2504 22.4029 57.2721 22.4414V23.7677L57.2714 23.7656ZM43.2155 30.9591C44.3914 30.9591 45.5323 31.0018 46.6684 30.9493C48.363 30.8709 49.6691 30.0731 50.591 28.6495C51.2041 27.7032 51.3392 26.6456 51.3357 25.5489C51.3294 23.1769 51.3343 20.8043 51.3336 18.4323C51.3336 17.7128 51.0704 17.4476 50.3453 17.4448C49.3093 17.4413 48.2734 17.4441 47.2381 17.4441C44.1191 17.4441 41.0001 17.4427 37.8811 17.4448C37.1538 17.4448 36.8878 17.7107 36.8843 18.4267C36.8815 19.0195 36.8955 19.6131 36.878 20.2059C36.8703 20.462 36.9683 20.5173 37.2084 20.5719C37.9973 20.7504 38.7994 20.9135 39.5519 21.1976C40.6977 21.6309 41.5384 22.4183 41.9415 23.6179C42.1361 24.1967 42.3475 24.7706 42.5729 25.3382C43.2862 27.1356 43.7355 28.9623 43.2155 30.9598V30.9591ZM29.7188 29.5453C29.2506 28.5725 28.7634 27.601 28.3168 26.6114C28.1719 26.2901 28.111 25.9241 28.0522 25.572C28.0137 25.3417 28.1005 25.1339 28.3651 25.0583C28.6262 24.9841 28.8264 25.0702 28.9601 25.2955C29.0301 25.4138 29.0707 25.5496 29.1204 25.6791C29.3304 26.2313 29.5068 26.7989 29.7531 27.335C30.2284 28.3688 30.8332 29.3172 31.7991 29.9737C32.3479 30.3467 32.6895 30.3782 33.1899 29.9394C33.6904 29.4998 34.1699 29.0015 34.5339 28.4479C35.5516 26.8997 36.2068 25.2137 36.1781 23.3225C36.1543 21.7848 35.2653 20.6454 33.7835 20.3004C32.9744 20.1121 32.1519 20.1107 31.3267 20.2605C30.1563 20.4732 29.3507 21.101 29.0168 22.2559C28.8957 22.6758 28.8565 23.1189 28.7788 23.5514C28.7249 23.8516 28.5345 23.9909 28.2398 23.9839C27.9486 23.9769 27.7925 23.7922 27.7499 23.5283C27.7226 23.3596 27.7352 23.1783 27.7632 23.0083C27.8387 22.5442 27.9325 22.083 28.0221 21.6022C26.9666 21.7289 25.9342 21.9703 25.0361 22.5981C24.5307 22.9516 24.1521 23.4121 24.0107 24.0378C23.8 24.968 24.0702 25.7918 24.6007 26.5337C25.8733 28.3128 27.6995 29.1597 29.7216 29.546L29.7188 29.5453ZM35.0868 29.5999C35.6321 29.4557 36.1095 29.3599 36.5659 29.2031C38.2493 28.6243 39.6709 27.6983 40.585 26.1116C41.3249 24.8273 41.124 23.4569 39.9572 22.6534C39.407 22.2741 38.7364 22.0557 38.0988 21.8226C37.7208 21.6841 37.3015 21.6596 36.9074 21.5854C37.7124 24.5795 36.689 27.1048 35.0875 29.6006L35.0868 29.5999ZM36.9956 30.1948C37.5472 30.7324 38.0827 31.2776 38.6454 31.7927C38.8638 31.9929 39.1263 32.1686 39.3993 32.2805C40.4464 32.711 41.558 32.1595 42.0423 31.0095C42.4903 29.9464 42.4721 28.8594 42.2208 27.7634C42.1025 27.2455 41.9366 26.738 41.7701 26.1473C40.7299 28.282 39.0094 29.4473 36.9956 30.1948ZM27.9472 30.192C25.9118 29.4473 24.2088 28.2652 23.191 26.1998C22.8025 27.2021 22.5379 28.1805 22.5729 29.1954C22.5939 29.8099 22.6982 30.4538 22.9215 31.0228C23.5144 32.5353 25.1355 32.8713 26.3184 31.7717C26.8693 31.2594 27.3992 30.7247 27.9472 30.192ZM52.3402 27.0194C53.8857 26.9424 55.042 26.2677 55.7497 24.9274C56.486 23.5318 56.381 22.1404 55.4795 20.8505C54.7466 19.8013 53.7114 19.2603 52.4018 19.2141V20.1849C54.2958 20.6475 55.2093 21.6197 55.1897 23.1364C55.1806 23.8244 54.9587 24.4298 54.5191 24.9596C53.9697 25.621 53.2473 25.9402 52.399 26.015C52.3794 26.3468 52.3619 26.6575 52.3409 27.0194H52.3402ZM52.4025 24.9239C53.4692 24.8259 54.1783 24.0287 54.1293 22.9922C54.0859 22.0781 53.3082 21.3173 52.4025 21.318V24.9246V24.9239Z" fill="#D1D1D1"/>
<path d="M40.1581 9.49785C40.1315 9.57064 40.0987 9.68123 40.0504 9.78481C39.7389 10.4504 39.7676 11.1055 40.1063 11.7522C40.6033 12.7006 40.6355 13.6588 40.1616 14.6246C39.9804 14.9949 39.7074 15.1222 39.4134 14.9858C39.1096 14.8451 39.0214 14.5546 39.195 14.1858C39.5149 13.5062 39.4813 12.8469 39.1369 12.1841C38.6294 11.2098 38.628 10.2257 39.1327 9.24869C39.2601 9.00232 39.4638 8.85814 39.762 8.94283C40.0175 9.01562 40.1392 9.19549 40.1588 9.49715L40.1581 9.49785Z" fill="#D1D1D1"/>
<path d="M43.9625 7.49651C44.5057 7.48181 44.7457 7.86046 44.5547 8.2734C44.3587 8.69754 44.2523 9.13287 44.3517 9.58571C44.4196 9.89646 44.5505 10.1974 44.6792 10.4914C45.0796 11.4068 45.081 12.3104 44.6281 13.2063C44.4504 13.5576 44.1494 13.6836 43.8638 13.5387C43.5922 13.4002 43.5082 13.1034 43.6713 12.757C43.9961 12.0662 43.9562 11.3991 43.6069 10.7272C43.1134 9.77888 43.0987 8.81302 43.595 7.86186C43.6853 7.68968 43.8827 7.5728 43.9625 7.49721V7.49651Z" fill="#D1D1D1"/>
<path d="M48.7152 15.0374C48.1742 15.0318 47.9453 14.6391 48.1371 14.2311C48.3457 13.7859 48.4472 13.3289 48.3275 12.8516C48.2554 12.5639 48.128 12.2875 48.0069 12.0145C47.6065 11.1102 47.6135 10.2151 48.0524 9.32758C48.2386 8.95104 48.5011 8.83205 48.8027 8.97273C49.1002 9.11061 49.1842 9.40527 49.0134 9.77552C48.7047 10.4432 48.7229 11.0962 49.0624 11.7471C49.5615 12.706 49.6021 13.6796 49.0981 14.6454C49.0029 14.8274 48.7999 14.9534 48.7159 15.0374H48.7152Z" fill="#D1D1D1"/>
<path d="M8.29688 64.9932H5.92188L5.9375 63.7666H8.29688C9.10938 63.7666 9.78646 63.5973 10.3281 63.2588C10.8698 62.915 11.276 62.4359 11.5469 61.8213C11.8229 61.2015 11.9609 60.4775 11.9609 59.6494V58.9541C11.9609 58.3031 11.8828 57.7249 11.7266 57.2197C11.5703 56.7093 11.3411 56.2796 11.0391 55.9307C10.737 55.5765 10.3672 55.3083 9.92969 55.126C9.4974 54.9437 9 54.8525 8.4375 54.8525H5.875V53.6182H8.4375C9.18229 53.6182 9.86198 53.7432 10.4766 53.9932C11.0911 54.238 11.6198 54.5947 12.0625 55.0635C12.5104 55.527 12.8542 56.0895 13.0938 56.751C13.3333 57.4072 13.4531 58.1468 13.4531 58.9697V59.6494C13.4531 60.4723 13.3333 61.2145 13.0938 61.876C12.8542 62.5322 12.5078 63.0921 12.0547 63.5557C11.6068 64.0192 11.0651 64.376 10.4297 64.626C9.79948 64.8708 9.08854 64.9932 8.29688 64.9932ZM6.72656 53.6182V64.9932H5.21875V53.6182H6.72656ZM19.0078 65.1494C18.4193 65.1494 17.8854 65.0505 17.4062 64.8525C16.9323 64.6494 16.5234 64.3656 16.1797 64.001C15.8411 63.6364 15.5807 63.2041 15.3984 62.7041C15.2161 62.2041 15.125 61.6572 15.125 61.0635V60.7354C15.125 60.0479 15.2266 59.4359 15.4297 58.8994C15.6328 58.3577 15.9089 57.8994 16.2578 57.5244C16.6068 57.1494 17.0026 56.8656 17.4453 56.6729C17.888 56.4801 18.3464 56.3838 18.8203 56.3838C19.4245 56.3838 19.9453 56.488 20.3828 56.6963C20.8255 56.9046 21.1875 57.1963 21.4688 57.5713C21.75 57.9411 21.9583 58.3786 22.0938 58.8838C22.2292 59.3838 22.2969 59.9307 22.2969 60.5244V61.1729H15.9844V59.9932H20.8516V59.8838C20.8307 59.5088 20.7526 59.1442 20.6172 58.79C20.487 58.4359 20.2786 58.1442 19.9922 57.915C19.7057 57.6859 19.3151 57.5713 18.8203 57.5713C18.4922 57.5713 18.1901 57.6416 17.9141 57.7822C17.638 57.9176 17.401 58.1208 17.2031 58.3916C17.0052 58.6624 16.8516 58.9932 16.7422 59.3838C16.6328 59.7744 16.5781 60.2249 16.5781 60.7354V61.0635C16.5781 61.4645 16.6328 61.8421 16.7422 62.1963C16.8568 62.5452 17.0208 62.8525 17.2344 63.1182C17.4531 63.3838 17.7161 63.5921 18.0234 63.7432C18.3359 63.8942 18.6901 63.9697 19.0859 63.9697C19.5964 63.9697 20.0286 63.8656 20.3828 63.6572C20.737 63.4489 21.0469 63.1702 21.3125 62.8213L22.1875 63.5166C22.0052 63.7926 21.7734 64.0557 21.4922 64.3057C21.2109 64.5557 20.8646 64.7588 20.4531 64.915C20.0469 65.0713 19.5651 65.1494 19.0078 65.1494ZM28.9062 62.751C28.9062 62.5426 28.8594 62.3499 28.7656 62.1729C28.6771 61.9906 28.4922 61.8265 28.2109 61.6807C27.9349 61.5296 27.5182 61.3994 26.9609 61.29C26.4922 61.1911 26.0677 61.0739 25.6875 60.9385C25.3125 60.8031 24.9922 60.639 24.7266 60.4463C24.4661 60.2536 24.2656 60.027 24.125 59.7666C23.9844 59.5062 23.9141 59.2015 23.9141 58.8525C23.9141 58.5192 23.987 58.2041 24.1328 57.9072C24.2839 57.6104 24.4948 57.3473 24.7656 57.1182C25.0417 56.889 25.3724 56.7093 25.7578 56.5791C26.1432 56.4489 26.5729 56.3838 27.0469 56.3838C27.724 56.3838 28.3021 56.5036 28.7812 56.7432C29.2604 56.9827 29.6276 57.3031 29.8828 57.7041C30.138 58.0999 30.2656 58.54 30.2656 59.0244H28.8203C28.8203 58.79 28.75 58.5635 28.6094 58.3447C28.474 58.1208 28.2734 57.9359 28.0078 57.79C27.7474 57.6442 27.4271 57.5713 27.0469 57.5713C26.6458 57.5713 26.3203 57.6338 26.0703 57.7588C25.8255 57.8786 25.6458 58.0322 25.5312 58.2197C25.4219 58.4072 25.3672 58.6051 25.3672 58.8135C25.3672 58.9697 25.3932 59.1104 25.4453 59.2354C25.5026 59.3551 25.6016 59.4671 25.7422 59.5713C25.8828 59.6702 26.0807 59.764 26.3359 59.8525C26.5911 59.9411 26.9167 60.0296 27.3125 60.1182C28.0052 60.2744 28.5755 60.4619 29.0234 60.6807C29.4714 60.8994 29.8047 61.1676 30.0234 61.4854C30.2422 61.8031 30.3516 62.1885 30.3516 62.6416C30.3516 63.0114 30.2734 63.3499 30.1172 63.6572C29.9661 63.9645 29.7448 64.2301 29.4531 64.4541C29.1667 64.6729 28.8229 64.8447 28.4219 64.9697C28.026 65.0895 27.5807 65.1494 27.0859 65.1494C26.3411 65.1494 25.7109 65.0166 25.1953 64.751C24.6797 64.4854 24.2891 64.1416 24.0234 63.7197C23.7578 63.2979 23.625 62.8525 23.625 62.3838H25.0781C25.099 62.7796 25.2135 63.0947 25.4219 63.3291C25.6302 63.5583 25.8854 63.7223 26.1875 63.8213C26.4896 63.915 26.7891 63.9619 27.0859 63.9619C27.4818 63.9619 27.8125 63.9098 28.0781 63.8057C28.349 63.7015 28.5547 63.5583 28.6953 63.376C28.8359 63.1937 28.9062 62.9854 28.9062 62.751ZM37.2344 63.5479V59.1963C37.2344 58.863 37.1667 58.5739 37.0312 58.3291C36.901 58.0791 36.7031 57.8864 36.4375 57.751C36.1719 57.6156 35.8438 57.5479 35.4531 57.5479C35.0885 57.5479 34.7682 57.6104 34.4922 57.7354C34.2214 57.8604 34.0078 58.0244 33.8516 58.2275C33.7005 58.4307 33.625 58.6494 33.625 58.8838H32.1797C32.1797 58.5817 32.2578 58.2822 32.4141 57.9854C32.5703 57.6885 32.7943 57.4202 33.0859 57.1807C33.3828 56.9359 33.737 56.7432 34.1484 56.6025C34.5651 56.4567 35.0286 56.3838 35.5391 56.3838C36.1536 56.3838 36.6953 56.488 37.1641 56.6963C37.638 56.9046 38.0078 57.2197 38.2734 57.6416C38.5443 58.0583 38.6797 58.5817 38.6797 59.2119V63.1494C38.6797 63.4307 38.7031 63.7301 38.75 64.0479C38.8021 64.3656 38.8776 64.639 38.9766 64.8682V64.9932H37.4688C37.3958 64.8265 37.3385 64.6051 37.2969 64.3291C37.2552 64.0479 37.2344 63.7874 37.2344 63.5479ZM37.4844 59.8682L37.5 60.8838H36.0391C35.6276 60.8838 35.2604 60.9176 34.9375 60.9854C34.6146 61.0479 34.3438 61.1442 34.125 61.2744C33.9062 61.4046 33.7396 61.5687 33.625 61.7666C33.5104 61.9593 33.4531 62.1859 33.4531 62.4463C33.4531 62.7119 33.513 62.9541 33.6328 63.1729C33.7526 63.3916 33.9323 63.5661 34.1719 63.6963C34.4167 63.8213 34.7161 63.8838 35.0703 63.8838C35.513 63.8838 35.9036 63.79 36.2422 63.6025C36.5807 63.415 36.849 63.1859 37.0469 62.915C37.25 62.6442 37.3594 62.3812 37.375 62.126L37.9922 62.8213C37.9557 63.04 37.8568 63.2822 37.6953 63.5479C37.5339 63.8135 37.3177 64.0687 37.0469 64.3135C36.7812 64.5531 36.4635 64.7536 36.0938 64.915C35.7292 65.0713 35.3177 65.1494 34.8594 65.1494C34.2865 65.1494 33.7839 65.0374 33.3516 64.8135C32.9245 64.5895 32.5911 64.29 32.3516 63.915C32.1172 63.5348 32 63.1104 32 62.6416C32 62.1885 32.0885 61.79 32.2656 61.4463C32.4427 61.0973 32.6979 60.8083 33.0312 60.5791C33.3646 60.3447 33.7656 60.1676 34.2344 60.0479C34.7031 59.9281 35.2266 59.8682 35.8047 59.8682H37.4844ZM43.2031 64.1182L45.5547 56.54H47.1016L43.7109 66.2979C43.6328 66.5062 43.5286 66.7301 43.3984 66.9697C43.2734 67.2145 43.112 67.4463 42.9141 67.665C42.7161 67.8838 42.4766 68.0609 42.1953 68.1963C41.9193 68.3369 41.5885 68.4072 41.2031 68.4072C41.0885 68.4072 40.9427 68.3916 40.7656 68.3604C40.5885 68.3291 40.4635 68.3031 40.3906 68.2822L40.3828 67.1104C40.4245 67.1156 40.4896 67.1208 40.5781 67.126C40.6719 67.1364 40.737 67.1416 40.7734 67.1416C41.1016 67.1416 41.3802 67.0973 41.6094 67.0088C41.8385 66.9255 42.0312 66.7822 42.1875 66.5791C42.349 66.3812 42.487 66.1077 42.6016 65.7588L43.2031 64.1182ZM41.4766 56.54L43.6719 63.1025L44.0469 64.626L43.0078 65.1572L39.8984 56.54H41.4766ZM53.5781 63.04V56.54H55.0312V64.9932H53.6484L53.5781 63.04ZM53.8516 61.2588L54.4531 61.2432C54.4531 61.8057 54.3932 62.3265 54.2734 62.8057C54.1589 63.2796 53.9714 63.6911 53.7109 64.04C53.4505 64.389 53.1094 64.6624 52.6875 64.8604C52.2656 65.0531 51.7526 65.1494 51.1484 65.1494C50.737 65.1494 50.3594 65.0895 50.0156 64.9697C49.6771 64.8499 49.3854 64.665 49.1406 64.415C48.8958 64.165 48.7057 63.8395 48.5703 63.4385C48.4401 63.0374 48.375 62.5557 48.375 61.9932V56.54H49.8203V62.0088C49.8203 62.389 49.862 62.7041 49.9453 62.9541C50.0339 63.1989 50.151 63.3942 50.2969 63.54C50.4479 63.6807 50.6146 63.7796 50.7969 63.8369C50.9844 63.8942 51.1771 63.9229 51.375 63.9229C51.9896 63.9229 52.4766 63.8057 52.8359 63.5713C53.1953 63.3317 53.4531 63.0114 53.6094 62.6104C53.7708 62.2041 53.8516 61.7536 53.8516 61.2588ZM58.6797 58.3447V64.9932H57.2344V56.54H58.6016L58.6797 58.3447ZM58.3359 60.4463L57.7344 60.4229C57.7396 59.8447 57.8255 59.3109 57.9922 58.8213C58.1589 58.3265 58.3932 57.8968 58.6953 57.5322C58.9974 57.1676 59.3568 56.8864 59.7734 56.6885C60.1953 56.4854 60.6615 56.3838 61.1719 56.3838C61.5885 56.3838 61.9635 56.4411 62.2969 56.5557C62.6302 56.665 62.9141 56.8421 63.1484 57.0869C63.388 57.3317 63.5703 57.6494 63.6953 58.04C63.8203 58.4255 63.8828 58.8968 63.8828 59.4541V64.9932H62.4297V59.4385C62.4297 58.9958 62.3646 58.6416 62.2344 58.376C62.1042 58.1051 61.9141 57.9098 61.6641 57.79C61.4141 57.665 61.1068 57.6025 60.7422 57.6025C60.3828 57.6025 60.0547 57.6781 59.7578 57.8291C59.4661 57.9801 59.2135 58.1885 59 58.4541C58.7917 58.7197 58.6276 59.0244 58.5078 59.3682C58.3932 59.7067 58.3359 60.0661 58.3359 60.4463ZM65.6953 60.8604V60.6807C65.6953 60.0713 65.7839 59.5062 65.9609 58.9854C66.138 58.4593 66.3932 58.0036 66.7266 57.6182C67.0599 57.2275 67.4635 56.9255 67.9375 56.7119C68.4115 56.4932 68.9427 56.3838 69.5312 56.3838C70.125 56.3838 70.6589 56.4932 71.1328 56.7119C71.612 56.9255 72.0182 57.2275 72.3516 57.6182C72.6901 58.0036 72.9479 58.4593 73.125 58.9854C73.3021 59.5062 73.3906 60.0713 73.3906 60.6807V60.8604C73.3906 61.4697 73.3021 62.0348 73.125 62.5557C72.9479 63.0765 72.6901 63.5322 72.3516 63.9229C72.0182 64.3083 71.6146 64.6104 71.1406 64.8291C70.6719 65.0426 70.1406 65.1494 69.5469 65.1494C68.9531 65.1494 68.4193 65.0426 67.9453 64.8291C67.4714 64.6104 67.0651 64.3083 66.7266 63.9229C66.3932 63.5322 66.138 63.0765 65.9609 62.5557C65.7839 62.0348 65.6953 61.4697 65.6953 60.8604ZM67.1406 60.6807V60.8604C67.1406 61.2822 67.1901 61.6807 67.2891 62.0557C67.388 62.4255 67.5365 62.7536 67.7344 63.04C67.9375 63.3265 68.1901 63.5531 68.4922 63.7197C68.7943 63.8812 69.1458 63.9619 69.5469 63.9619C69.9427 63.9619 70.2891 63.8812 70.5859 63.7197C70.888 63.5531 71.138 63.3265 71.3359 63.04C71.5339 62.7536 71.6823 62.4255 71.7812 62.0557C71.8854 61.6807 71.9375 61.2822 71.9375 60.8604V60.6807C71.9375 60.264 71.8854 59.8708 71.7812 59.501C71.6823 59.126 71.5312 58.7952 71.3281 58.5088C71.1302 58.2171 70.8802 57.988 70.5781 57.8213C70.2812 57.6546 69.9323 57.5713 69.5312 57.5713C69.1354 57.5713 68.7865 57.6546 68.4844 57.8213C68.1875 57.988 67.9375 58.2171 67.7344 58.5088C67.5365 58.7952 67.388 59.126 67.2891 59.501C67.1901 59.8708 67.1406 60.264 67.1406 60.6807Z" fill="#D1D1D1"/>
</svg>
