<svg width="62" height="70" viewBox="0 0 62 70" fill="none" xmlns="http://www.w3.org/2000/svg">
<path d="M13.5 27.884C13.6942 27.5978 13.9596 27.4981 14.3229 27.5034C15.6116 27.5221 16.9004 27.5109 18.1899 27.5109H18.626C19.4254 24.4566 20.2178 21.4294 21.0148 18.3849C21.4463 18.4921 21.8307 18.5872 22.241 18.6884C21.4729 21.631 20.7134 24.5398 19.9453 27.4839H42.0561C41.176 24.112 40.2983 20.7505 39.4214 17.3921C38.3723 17.2003 37.8759 17.5854 37.8751 18.585C37.8751 19.4692 37.8782 20.3534 37.8743 21.2376C37.8688 22.408 36.912 23.3229 35.6992 23.3252C34.4614 23.3274 33.5077 22.4155 33.5023 21.2218C33.4999 20.6741 33.5062 20.1256 33.5007 19.5778C33.4944 18.9686 33.1053 18.546 32.5627 18.5475C32.0201 18.549 31.631 18.9709 31.6279 19.5808C31.6224 20.5272 31.6294 21.4736 31.6255 22.42C31.6208 23.6129 30.664 24.5241 29.4246 24.5211C28.2126 24.5181 27.2566 23.6024 27.2535 22.4305C27.2496 21.1102 27.2535 19.7899 27.2519 18.4704C27.2511 17.6933 26.8957 17.3494 26.0916 17.3479C24.8028 17.3456 23.5141 17.3486 22.2245 17.3464C21.6209 17.3456 21.3711 17.0392 21.5128 16.4787C21.6044 16.1168 21.6937 15.7541 21.7947 15.3952C22.1713 14.0576 23.3864 13.1674 24.8388 13.1637C25.4895 13.1622 26.1401 13.1637 26.8682 13.1637C26.7547 13.0491 26.6866 12.9741 26.6114 12.9052C25.1285 11.5392 24.5225 9.88544 24.8302 7.93272C24.9015 7.48313 25.0627 7.33027 25.5216 7.26059C27.374 6.97809 28.9916 7.46365 30.4448 8.66855C31.2489 7.47939 32.0851 6.3187 33.6573 5.98975C34.048 5.98975 34.4387 5.98975 34.8294 5.98975C34.874 6.01223 34.9171 6.0452 34.9641 6.05494C36.1197 6.29547 36.9528 6.93313 37.4852 7.93497C37.7201 8.37782 37.951 8.82291 38.1624 9.27625C38.4936 9.98735 38.6361 10.7389 38.4146 11.4935C38.2462 12.0682 37.9659 12.613 37.7287 13.1892C37.7013 13.1764 37.7443 13.2064 37.7929 13.2169C39.1325 13.5121 39.9288 14.3236 40.2568 15.584C40.8934 18.0275 41.5323 20.4695 42.1704 22.9123C42.5689 24.4379 42.9698 25.9628 43.3754 27.5109C43.5359 27.5109 43.6768 27.5109 43.8185 27.5109C45.1331 27.5109 46.4477 27.5094 47.7623 27.5116C48.2822 27.5124 48.4959 27.7192 48.4998 28.21C48.5233 31.0199 45.9685 33.4837 43.0027 33.4859C35.0376 33.4919 27.0726 33.4896 19.1076 33.4874C16.6146 33.4874 14.4419 31.9258 13.7294 29.6329C13.6496 29.3752 13.5775 29.1151 13.5016 28.8559C13.5016 28.5322 13.5016 28.2085 13.5016 27.8848L13.5 27.884ZM14.8263 28.7225C14.8397 28.8244 14.8436 28.9098 14.8631 28.993C15.3298 30.9644 17.0727 32.2892 19.2477 32.2907C27.0812 32.2967 34.9155 32.299 42.749 32.281C43.308 32.2795 43.8984 32.1791 44.4206 31.9903C45.9787 31.4268 46.8705 30.3065 47.1962 28.7232H14.8271L14.8263 28.7225ZM22.9597 16.1183C22.9832 16.128 23.0067 16.1452 23.0294 16.1452C24.0449 16.1482 25.0627 16.1984 26.0743 16.14C27.5111 16.0568 28.5798 17.1658 28.5132 18.4516C28.4475 19.7187 28.5007 20.9911 28.4976 22.2611C28.4968 22.6605 28.6103 23 29.0002 23.2023C29.6462 23.538 30.3579 23.1071 30.3704 22.3541C30.3869 21.371 30.3704 20.3871 30.3759 19.4033C30.3829 18.2613 31.3468 17.3509 32.5424 17.3471C33.7669 17.3434 34.737 18.2471 34.7472 19.4048C34.7527 19.99 34.7433 20.5752 34.7503 21.1604C34.755 21.5673 34.9335 21.8865 35.3383 22.0491C35.9803 22.3069 36.6114 21.864 36.6208 21.1379C36.6333 20.1668 36.6208 19.1957 36.6255 18.2246C36.6294 17.2729 37.2714 16.4727 38.2399 16.2277C38.4991 16.1617 38.7747 16.1527 39.0425 16.1175C38.983 15.1097 38.2063 14.3783 37.1493 14.3611C36.2904 14.3469 35.4315 14.3581 34.5718 14.3581C31.3695 14.3581 28.168 14.3559 24.9657 14.3589C23.8194 14.3596 23.0043 15.0804 22.9597 16.119V16.1183ZM33.5304 13.1614C33.9728 13.1614 34.416 13.1734 34.8583 13.1592C36.3945 13.109 37.5455 11.8044 37.1642 10.3867C36.9426 9.56323 36.5386 8.74049 36.0312 8.04137C35.2154 6.9174 33.4929 6.88893 32.5799 7.93872C31.8831 8.74049 31.238 9.59246 30.6609 10.4767C29.878 11.6763 30.765 13.1367 32.2425 13.1614C32.6715 13.1682 33.1014 13.1622 33.5312 13.1614H33.5304ZM29.5319 13.061C29.5522 13.0273 29.5726 12.9929 29.5929 12.9591C28.9439 11.7437 27.6857 11.0311 26.8604 10.0203C27.1446 9.72733 27.4148 9.44859 27.7796 9.07093C28.2713 9.57223 28.7434 10.0555 29.2156 10.5366C29.3667 10.2271 29.5068 9.93939 29.6517 9.64416C28.7724 8.80717 27.7068 8.43102 26.4917 8.37632C26.119 8.35908 25.9804 8.48347 26 8.84164C26.0947 10.6025 26.9199 11.9176 28.5767 12.7209C28.8781 12.867 29.2124 12.9486 29.5319 13.0603V13.061Z" fill="#D1D1D1"/>
<path d="M9.20312 61.5254H6.16406V60.2988H9.20312C9.79167 60.2988 10.2682 60.2051 10.6328 60.0176C10.9974 59.8301 11.263 59.5697 11.4297 59.2363C11.6016 58.903 11.6875 58.5228 11.6875 58.0957C11.6875 57.7051 11.6016 57.3379 11.4297 56.9941C11.263 56.6504 10.9974 56.3743 10.6328 56.166C10.2682 55.9525 9.79167 55.8457 9.20312 55.8457H6.51562V65.9863H5.00781V54.6113H9.20312C10.0625 54.6113 10.7891 54.7598 11.3828 55.0566C11.9766 55.3535 12.4271 55.765 12.7344 56.291C13.0417 56.8118 13.1953 57.4082 13.1953 58.0801C13.1953 58.8092 13.0417 59.4316 12.7344 59.9473C12.4271 60.4629 11.9766 60.8561 11.3828 61.127C10.7891 61.3926 10.0625 61.5254 9.20312 61.5254ZM14.3906 61.8535V61.6738C14.3906 61.0645 14.4792 60.4993 14.6562 59.9785C14.8333 59.4525 15.0885 58.9967 15.4219 58.6113C15.7552 58.2207 16.1589 57.9186 16.6328 57.7051C17.1068 57.4863 17.638 57.377 18.2266 57.377C18.8203 57.377 19.3542 57.4863 19.8281 57.7051C20.3073 57.9186 20.7135 58.2207 21.0469 58.6113C21.3854 58.9967 21.6432 59.4525 21.8203 59.9785C21.9974 60.4993 22.0859 61.0645 22.0859 61.6738V61.8535C22.0859 62.4629 21.9974 63.028 21.8203 63.5488C21.6432 64.0697 21.3854 64.5254 21.0469 64.916C20.7135 65.3014 20.3099 65.6035 19.8359 65.8223C19.3672 66.0358 18.8359 66.1426 18.2422 66.1426C17.6484 66.1426 17.1146 66.0358 16.6406 65.8223C16.1667 65.6035 15.7604 65.3014 15.4219 64.916C15.0885 64.5254 14.8333 64.0697 14.6562 63.5488C14.4792 63.028 14.3906 62.4629 14.3906 61.8535ZM15.8359 61.6738V61.8535C15.8359 62.2754 15.8854 62.6738 15.9844 63.0488C16.0833 63.4186 16.2318 63.7467 16.4297 64.0332C16.6328 64.3197 16.8854 64.5462 17.1875 64.7129C17.4896 64.8743 17.8411 64.9551 18.2422 64.9551C18.638 64.9551 18.9844 64.8743 19.2812 64.7129C19.5833 64.5462 19.8333 64.3197 20.0312 64.0332C20.2292 63.7467 20.3776 63.4186 20.4766 63.0488C20.5807 62.6738 20.6328 62.2754 20.6328 61.8535V61.6738C20.6328 61.2572 20.5807 60.8639 20.4766 60.4941C20.3776 60.1191 20.2266 59.7884 20.0234 59.502C19.8255 59.2103 19.5755 58.9811 19.2734 58.8145C18.9766 58.6478 18.6276 58.5645 18.2266 58.5645C17.8307 58.5645 17.4818 58.6478 17.1797 58.8145C16.8828 58.9811 16.6328 59.2103 16.4297 59.502C16.2318 59.7884 16.0833 60.1191 15.9844 60.4941C15.8854 60.8639 15.8359 61.2572 15.8359 61.6738ZM28.8203 63.7441C28.8203 63.5358 28.7734 63.3431 28.6797 63.166C28.5911 62.9837 28.4062 62.8197 28.125 62.6738C27.849 62.5228 27.4323 62.3926 26.875 62.2832C26.4062 62.1842 25.9818 62.0671 25.6016 61.9316C25.2266 61.7962 24.9062 61.6322 24.6406 61.4395C24.3802 61.2467 24.1797 61.0202 24.0391 60.7598C23.8984 60.4993 23.8281 60.1947 23.8281 59.8457C23.8281 59.5124 23.901 59.1973 24.0469 58.9004C24.1979 58.6035 24.4089 58.3405 24.6797 58.1113C24.9557 57.8822 25.2865 57.7025 25.6719 57.5723C26.0573 57.4421 26.487 57.377 26.9609 57.377C27.638 57.377 28.2161 57.4967 28.6953 57.7363C29.1745 57.9759 29.5417 58.2962 29.7969 58.6973C30.0521 59.0931 30.1797 59.5332 30.1797 60.0176H28.7344C28.7344 59.7832 28.6641 59.5566 28.5234 59.3379C28.388 59.1139 28.1875 58.929 27.9219 58.7832C27.6615 58.6374 27.3411 58.5645 26.9609 58.5645C26.5599 58.5645 26.2344 58.627 25.9844 58.752C25.7396 58.8717 25.5599 59.0254 25.4453 59.2129C25.3359 59.4004 25.2812 59.5983 25.2812 59.8066C25.2812 59.9629 25.3073 60.1035 25.3594 60.2285C25.4167 60.3483 25.5156 60.4603 25.6562 60.5645C25.7969 60.6634 25.9948 60.7572 26.25 60.8457C26.5052 60.9342 26.8307 61.0228 27.2266 61.1113C27.9193 61.2676 28.4896 61.4551 28.9375 61.6738C29.3854 61.8926 29.7188 62.1608 29.9375 62.4785C30.1562 62.7962 30.2656 63.1816 30.2656 63.6348C30.2656 64.0046 30.1875 64.3431 30.0312 64.6504C29.8802 64.9577 29.6589 65.2233 29.3672 65.4473C29.0807 65.666 28.737 65.8379 28.3359 65.9629C27.9401 66.0827 27.4948 66.1426 27 66.1426C26.2552 66.1426 25.625 66.0098 25.1094 65.7441C24.5938 65.4785 24.2031 65.1348 23.9375 64.7129C23.6719 64.291 23.5391 63.8457 23.5391 63.377H24.9922C25.013 63.7728 25.1276 64.0879 25.3359 64.3223C25.5443 64.5514 25.7995 64.7155 26.1016 64.8145C26.4036 64.9082 26.7031 64.9551 27 64.9551C27.3958 64.9551 27.7266 64.903 27.9922 64.7988C28.263 64.6947 28.4688 64.5514 28.6094 64.3691C28.75 64.1868 28.8203 63.9785 28.8203 63.7441ZM35.7031 57.5332V58.6426H31.1328V57.5332H35.7031ZM32.6797 55.4785H34.125V63.8926C34.125 64.179 34.1693 64.3952 34.2578 64.541C34.3464 64.6868 34.4609 64.7832 34.6016 64.8301C34.7422 64.877 34.8932 64.9004 35.0547 64.9004C35.1745 64.9004 35.2995 64.89 35.4297 64.8691C35.5651 64.8431 35.6667 64.8223 35.7344 64.8066L35.7422 65.9863C35.6276 66.0228 35.4766 66.0566 35.2891 66.0879C35.1068 66.1243 34.8854 66.1426 34.625 66.1426C34.2708 66.1426 33.9453 66.0723 33.6484 65.9316C33.3516 65.791 33.1146 65.5566 32.9375 65.2285C32.7656 64.8952 32.6797 64.4473 32.6797 63.8848V55.4785ZM38.8438 58.8613V65.9863H37.3984V57.5332H38.8047L38.8438 58.8613ZM41.4844 57.4863L41.4766 58.8301C41.3568 58.804 41.2422 58.7884 41.1328 58.7832C41.0286 58.7728 40.9089 58.7676 40.7734 58.7676C40.4401 58.7676 40.1458 58.8197 39.8906 58.9238C39.6354 59.028 39.4193 59.1738 39.2422 59.3613C39.0651 59.5488 38.9245 59.7728 38.8203 60.0332C38.7214 60.2884 38.6562 60.5697 38.625 60.877L38.2188 61.1113C38.2188 60.6009 38.2682 60.1217 38.3672 59.6738C38.4714 59.2259 38.6302 58.8301 38.8438 58.4863C39.0573 58.1374 39.3281 57.8665 39.6562 57.6738C39.9896 57.4759 40.3854 57.377 40.8438 57.377C40.9479 57.377 41.0677 57.39 41.2031 57.416C41.3385 57.4368 41.4323 57.4603 41.4844 57.4863ZM46.1719 66.1426C45.5833 66.1426 45.0495 66.0436 44.5703 65.8457C44.0964 65.6426 43.6875 65.3587 43.3438 64.9941C43.0052 64.6296 42.7448 64.1973 42.5625 63.6973C42.3802 63.1973 42.2891 62.6504 42.2891 62.0566V61.7285C42.2891 61.041 42.3906 60.429 42.5938 59.8926C42.7969 59.3509 43.0729 58.8926 43.4219 58.5176C43.7708 58.1426 44.1667 57.8587 44.6094 57.666C45.0521 57.4733 45.5104 57.377 45.9844 57.377C46.5885 57.377 47.1094 57.4811 47.5469 57.6895C47.9896 57.8978 48.3516 58.1895 48.6328 58.5645C48.9141 58.9342 49.1224 59.3717 49.2578 59.877C49.3932 60.377 49.4609 60.9238 49.4609 61.5176V62.166H43.1484V60.9863H48.0156V60.877C47.9948 60.502 47.9167 60.1374 47.7812 59.7832C47.651 59.429 47.4427 59.1374 47.1562 58.9082C46.8698 58.679 46.4792 58.5645 45.9844 58.5645C45.6562 58.5645 45.3542 58.6348 45.0781 58.7754C44.8021 58.9108 44.5651 59.1139 44.3672 59.3848C44.1693 59.6556 44.0156 59.9863 43.9062 60.377C43.7969 60.7676 43.7422 61.2181 43.7422 61.7285V62.0566C43.7422 62.4577 43.7969 62.8353 43.9062 63.1895C44.0208 63.5384 44.1849 63.8457 44.3984 64.1113C44.6172 64.377 44.8802 64.5853 45.1875 64.7363C45.5 64.8874 45.8542 64.9629 46.25 64.9629C46.7604 64.9629 47.1927 64.8587 47.5469 64.6504C47.901 64.4421 48.2109 64.1634 48.4766 63.8145L49.3516 64.5098C49.1693 64.7858 48.9375 65.0488 48.6562 65.2988C48.375 65.5488 48.0286 65.752 47.6172 65.9082C47.2109 66.0645 46.7292 66.1426 46.1719 66.1426ZM56.0703 63.7441C56.0703 63.5358 56.0234 63.3431 55.9297 63.166C55.8411 62.9837 55.6562 62.8197 55.375 62.6738C55.099 62.5228 54.6823 62.3926 54.125 62.2832C53.6562 62.1842 53.2318 62.0671 52.8516 61.9316C52.4766 61.7962 52.1562 61.6322 51.8906 61.4395C51.6302 61.2467 51.4297 61.0202 51.2891 60.7598C51.1484 60.4993 51.0781 60.1947 51.0781 59.8457C51.0781 59.5124 51.151 59.1973 51.2969 58.9004C51.4479 58.6035 51.6589 58.3405 51.9297 58.1113C52.2057 57.8822 52.5365 57.7025 52.9219 57.5723C53.3073 57.4421 53.737 57.377 54.2109 57.377C54.888 57.377 55.4661 57.4967 55.9453 57.7363C56.4245 57.9759 56.7917 58.2962 57.0469 58.6973C57.3021 59.0931 57.4297 59.5332 57.4297 60.0176H55.9844C55.9844 59.7832 55.9141 59.5566 55.7734 59.3379C55.638 59.1139 55.4375 58.929 55.1719 58.7832C54.9115 58.6374 54.5911 58.5645 54.2109 58.5645C53.8099 58.5645 53.4844 58.627 53.2344 58.752C52.9896 58.8717 52.8099 59.0254 52.6953 59.2129C52.5859 59.4004 52.5312 59.5983 52.5312 59.8066C52.5312 59.9629 52.5573 60.1035 52.6094 60.2285C52.6667 60.3483 52.7656 60.4603 52.9062 60.5645C53.0469 60.6634 53.2448 60.7572 53.5 60.8457C53.7552 60.9342 54.0807 61.0228 54.4766 61.1113C55.1693 61.2676 55.7396 61.4551 56.1875 61.6738C56.6354 61.8926 56.9688 62.1608 57.1875 62.4785C57.4062 62.7962 57.5156 63.1816 57.5156 63.6348C57.5156 64.0046 57.4375 64.3431 57.2812 64.6504C57.1302 64.9577 56.9089 65.2233 56.6172 65.4473C56.3307 65.666 55.987 65.8379 55.5859 65.9629C55.1901 66.0827 54.7448 66.1426 54.25 66.1426C53.5052 66.1426 52.875 66.0098 52.3594 65.7441C51.8438 65.4785 51.4531 65.1348 51.1875 64.7129C50.9219 64.291 50.7891 63.8457 50.7891 63.377H52.2422C52.263 63.7728 52.3776 64.0879 52.5859 64.3223C52.7943 64.5514 53.0495 64.7155 53.3516 64.8145C53.6536 64.9082 53.9531 64.9551 54.25 64.9551C54.6458 64.9551 54.9766 64.903 55.2422 64.7988C55.513 64.6947 55.7188 64.5514 55.8594 64.3691C56 64.1868 56.0703 63.9785 56.0703 63.7441Z" fill="#D1D1D1"/>
</svg>
