<svg width="62" height="70" viewBox="0 0 62 70" fill="none" xmlns="http://www.w3.org/2000/svg">
<path d="M30.6883 3.48738C31.632 3.69264 32.3233 4.28644 32.9716 4.95565C33.335 5.33162 33.7571 5.65627 34.0923 6.05528C34.595 6.65536 35.1878 6.76533 35.9241 6.61871C36.7138 6.46057 37.5192 6.38622 38.3184 6.2794C39.9837 6.05738 41.5013 7.20518 41.7589 9.02848C41.8762 9.86001 42.0459 10.6842 42.181 11.5136C42.2585 11.9891 42.5005 12.3117 42.9383 12.5305C43.7112 12.9159 44.4674 13.3338 45.2278 13.7422C46.8899 14.6366 47.4356 16.2976 46.6229 17.9962C46.2458 18.7848 45.8646 19.5724 45.4687 20.3526C45.2498 20.7841 45.2529 21.1894 45.4718 21.6198C45.8688 22.3989 46.2479 23.1875 46.626 23.9761C47.4304 25.6591 46.891 27.3243 45.2529 28.2123C44.4936 28.6239 43.7363 29.0397 42.9613 29.4198C42.469 29.6607 42.2481 30.0367 42.1622 30.5593C42.0009 31.5447 41.8459 32.5344 41.6113 33.5031C41.2751 34.896 39.9083 35.8385 38.4817 35.693C37.4878 35.5914 36.496 35.4573 35.5093 35.3002C35.0475 35.2269 34.6872 35.34 34.3625 35.6563C33.711 36.2931 33.0596 36.9298 32.3976 37.5561C31.0905 38.7939 29.3257 38.7918 28.0186 37.5529C27.4405 37.0042 26.8393 36.4753 26.3072 35.8846C25.815 35.3379 25.2693 35.2008 24.5665 35.3348C23.7192 35.4971 22.8593 35.5893 22.0026 35.7003C20.6128 35.8804 19.1381 34.9065 18.8123 33.5356C18.5809 32.5648 18.4175 31.5772 18.2635 30.5907C18.1776 30.0388 17.9399 29.6555 17.4288 29.3999C16.5752 28.9737 15.7342 28.5213 14.9067 28.0469C14.1024 27.585 13.6363 26.8666 13.4687 25.9544C13.453 25.8675 13.4237 25.7827 13.3996 25.6978C13.3996 25.5156 13.3996 25.3334 13.3996 25.1512C13.4792 24.8831 13.5274 24.6014 13.6436 24.35C14.0657 23.4326 14.5014 22.5204 14.9507 21.6156C15.1665 21.1831 15.156 20.7851 14.9528 20.3473C14.4103 19.1807 13.7012 18.0863 13.4006 16.8128C13.4006 16.6306 13.4006 16.4484 13.4006 16.2661C13.4237 16.1803 13.453 16.0965 13.4698 16.0096C13.6394 15.0995 14.1013 14.3779 14.9067 13.9171C15.774 13.4207 16.6632 12.962 17.5461 12.4949C17.9127 12.3012 18.1431 12.0258 18.2122 11.6079C18.3557 10.746 18.5369 9.88933 18.6605 9.02533C18.9202 7.20937 20.4378 6.05423 22.1042 6.27835C22.9033 6.38622 23.7098 6.45953 24.4985 6.61871C25.2337 6.76638 25.8265 6.65432 26.3292 6.05423C26.6633 5.65522 27.0854 5.33057 27.4489 4.9546C28.0961 4.2854 28.7874 3.69159 29.7311 3.48633H30.6873L30.6883 3.48738ZM38.6577 33.6958C39.2107 33.6864 39.6129 33.3356 39.7092 32.8004C39.8527 32.0066 40.0172 31.2159 40.1188 30.4168C40.2905 29.0795 40.9305 28.1128 42.1716 27.5358C42.8922 27.2017 43.5824 26.7996 44.2831 26.4236C44.9712 26.055 45.1335 25.5638 44.7952 24.8632C44.4098 24.0652 44.0233 23.2671 43.6264 22.4754C43.1278 21.4794 43.1268 20.4919 43.6243 19.4959C44.0108 18.7241 44.3868 17.946 44.7649 17.1689C45.145 16.3876 44.9932 15.9205 44.2265 15.5142C43.4441 15.0984 42.6597 14.6858 41.8762 14.2701C40.9273 13.7663 40.3722 12.9809 40.191 11.9231C40.0339 11.0047 39.8737 10.0873 39.7092 9.1709C39.6035 8.58339 39.1269 8.20742 38.5676 8.28177C37.7119 8.39593 36.8541 8.50275 36.0047 8.65565C34.7804 8.87662 33.7393 8.58862 32.8606 7.68797C32.272 7.08475 31.6519 6.51294 31.0465 5.92752C30.4799 5.37875 29.9405 5.3777 29.376 5.92332C28.7214 6.55692 28.0668 7.19052 27.4112 7.82412C26.7471 8.46609 25.9501 8.8096 25.0305 8.71953C24.002 8.61899 22.9808 8.44829 21.9576 8.29539C21.3291 8.20113 20.8243 8.53835 20.7102 9.16567C20.5656 9.95845 20.4022 10.7502 20.2996 11.5493C20.1278 12.8866 19.49 13.8543 18.2478 14.4313C17.5272 14.7665 16.837 15.1676 16.1363 15.5435C15.4472 15.9132 15.2848 16.4044 15.6221 17.1029C16.0075 17.9009 16.394 18.6989 16.7909 19.4907C17.2895 20.4856 17.2916 21.4742 16.7941 22.4702C16.4076 23.242 16.0316 24.0201 15.6535 24.7972C15.2723 25.5795 15.4241 26.0466 16.1908 26.4529C16.9732 26.8687 17.7587 27.2803 18.5411 27.6971C19.513 28.2155 20.066 29.0219 20.2357 30.111C20.3771 31.0201 20.5447 31.9249 20.7143 32.8287C20.8201 33.3921 21.3051 33.7576 21.8497 33.6854C22.7054 33.5712 23.5632 33.4633 24.4126 33.3115C25.6359 33.0937 26.678 33.39 27.5578 34.2802C28.1506 34.8792 28.7675 35.4542 29.3729 36.0407C29.9395 36.5884 30.4768 36.5894 31.0434 36.0417C31.6907 35.4165 32.3379 34.7913 32.9831 34.165C33.4869 33.6749 34.0713 33.3104 34.7793 33.2822C35.3522 33.2591 35.9314 33.3293 36.5043 33.3942C37.2375 33.478 37.9675 33.5974 38.6566 33.6948L38.6577 33.6958Z" fill="#D1D1D1"/>
<path d="M37.9536 14.3701C37.8017 14.6246 37.6886 14.9136 37.4917 15.1252C36.9492 15.7085 36.3721 16.2594 35.8086 16.8228C32.0245 20.6076 28.2404 24.3914 24.4584 28.1762C24.2133 28.4213 23.9651 28.6454 23.5859 28.6486C23.1534 28.6527 22.8318 28.4642 22.6475 28.0862C22.4705 27.7238 22.5008 27.3562 22.7533 27.0263C22.8287 26.9279 22.9177 26.8368 23.0057 26.7488C27.3281 22.4246 31.6516 18.1005 35.9741 13.7753C36.2202 13.5291 36.4737 13.3134 36.8518 13.3145C37.4289 13.3145 37.874 13.747 37.9536 14.368V14.3701Z" fill="#D1D1D1"/>
<path d="M29.8714 15.609C29.8693 17.6428 28.1725 19.3342 26.1574 19.3132C24.1214 19.2912 22.4833 17.6428 22.477 15.609C22.4707 13.5616 24.1287 11.8965 26.1742 11.8965C28.2197 11.8965 29.8735 13.5574 29.8714 15.609ZM27.8343 15.5944C27.8311 14.6634 27.1 13.9366 26.1679 13.9376C25.241 13.9397 24.5099 14.678 24.5141 15.608C24.5183 16.5285 25.2724 17.2836 26.1815 17.2763C27.1 17.269 27.8374 16.5181 27.8343 15.5933V15.5944Z" fill="#D1D1D1"/>
<path d="M34.24 22.6573C36.2739 22.6499 37.9445 24.3255 37.9424 26.3688C37.9403 28.4026 36.2917 30.0635 34.2682 30.0698C32.2165 30.0761 30.5522 28.4256 30.5501 26.3803C30.548 24.3276 32.1966 22.6646 34.24 22.6573ZM32.5862 26.3646C32.5862 27.2966 33.3162 28.0276 34.2452 28.0276C35.1752 28.0276 35.9053 27.2977 35.9063 26.3656C35.9063 25.4409 35.1658 24.6942 34.2462 24.6931C33.3287 24.6921 32.5862 25.4398 32.5862 26.3656V26.3646Z" fill="#D1D1D1"/>
<path d="M8.5625 61.522H5.52344V60.2954H8.5625C9.15104 60.2954 9.6276 60.2017 9.99219 60.0142C10.3568 59.8267 10.6224 59.5662 10.7891 59.2329C10.9609 58.8996 11.0469 58.5194 11.0469 58.0923C11.0469 57.7017 10.9609 57.3345 10.7891 56.9907C10.6224 56.647 10.3568 56.3709 9.99219 56.1626C9.6276 55.9491 9.15104 55.8423 8.5625 55.8423H5.875V65.9829H4.36719V54.6079H8.5625C9.42188 54.6079 10.1484 54.7563 10.7422 55.0532C11.3359 55.3501 11.7865 55.7616 12.0938 56.2876C12.401 56.8084 12.5547 57.4048 12.5547 58.0767C12.5547 58.8058 12.401 59.4282 12.0938 59.9438C11.7865 60.4595 11.3359 60.8527 10.7422 61.1235C10.1484 61.3892 9.42188 61.522 8.5625 61.522ZM15.6875 58.8579V65.9829H14.2422V57.5298H15.6484L15.6875 58.8579ZM18.3281 57.4829L18.3203 58.8267C18.2005 58.8006 18.0859 58.785 17.9766 58.7798C17.8724 58.7694 17.7526 58.7642 17.6172 58.7642C17.2839 58.7642 16.9896 58.8162 16.7344 58.9204C16.4792 59.0246 16.263 59.1704 16.0859 59.3579C15.9089 59.5454 15.7682 59.7694 15.6641 60.0298C15.5651 60.285 15.5 60.5662 15.4688 60.8735L15.0625 61.1079C15.0625 60.5975 15.112 60.1183 15.2109 59.6704C15.3151 59.2225 15.474 58.8267 15.6875 58.4829C15.901 58.134 16.1719 57.8631 16.5 57.6704C16.8333 57.4725 17.2292 57.3735 17.6875 57.3735C17.7917 57.3735 17.9115 57.3866 18.0469 57.4126C18.1823 57.4334 18.276 57.4569 18.3281 57.4829ZM19.125 61.8501V61.6704C19.125 61.061 19.2135 60.4959 19.3906 59.9751C19.5677 59.4491 19.8229 58.9933 20.1562 58.6079C20.4896 58.2173 20.8932 57.9152 21.3672 57.7017C21.8411 57.4829 22.3724 57.3735 22.9609 57.3735C23.5547 57.3735 24.0885 57.4829 24.5625 57.7017C25.0417 57.9152 25.4479 58.2173 25.7812 58.6079C26.1198 58.9933 26.3776 59.4491 26.5547 59.9751C26.7318 60.4959 26.8203 61.061 26.8203 61.6704V61.8501C26.8203 62.4595 26.7318 63.0246 26.5547 63.5454C26.3776 64.0662 26.1198 64.522 25.7812 64.9126C25.4479 65.298 25.0443 65.6001 24.5703 65.8188C24.1016 66.0324 23.5703 66.1392 22.9766 66.1392C22.3828 66.1392 21.849 66.0324 21.375 65.8188C20.901 65.6001 20.4948 65.298 20.1562 64.9126C19.8229 64.522 19.5677 64.0662 19.3906 63.5454C19.2135 63.0246 19.125 62.4595 19.125 61.8501ZM20.5703 61.6704V61.8501C20.5703 62.272 20.6198 62.6704 20.7188 63.0454C20.8177 63.4152 20.9661 63.7433 21.1641 64.0298C21.3672 64.3162 21.6198 64.5428 21.9219 64.7095C22.224 64.8709 22.5755 64.9517 22.9766 64.9517C23.3724 64.9517 23.7188 64.8709 24.0156 64.7095C24.3177 64.5428 24.5677 64.3162 24.7656 64.0298C24.9635 63.7433 25.112 63.4152 25.2109 63.0454C25.3151 62.6704 25.3672 62.272 25.3672 61.8501V61.6704C25.3672 61.2537 25.3151 60.8605 25.2109 60.4907C25.112 60.1157 24.9609 59.785 24.7578 59.4985C24.5599 59.2069 24.3099 58.9777 24.0078 58.811C23.7109 58.6444 23.362 58.561 22.9609 58.561C22.5651 58.561 22.2161 58.6444 21.9141 58.811C21.6172 58.9777 21.3672 59.2069 21.1641 59.4985C20.9661 59.785 20.8177 60.1157 20.7188 60.4907C20.6198 60.8605 20.5703 61.2537 20.5703 61.6704ZM30.0703 59.2095V65.9829H28.6172V57.5298H29.9922L30.0703 59.2095ZM29.7734 61.436L29.1016 61.4126C29.1068 60.8345 29.1823 60.3006 29.3281 59.811C29.474 59.3162 29.6901 58.8866 29.9766 58.522C30.263 58.1574 30.6198 57.8761 31.0469 57.6782C31.474 57.4751 31.9688 57.3735 32.5312 57.3735C32.9271 57.3735 33.2917 57.4308 33.625 57.5454C33.9583 57.6548 34.2474 57.8293 34.4922 58.0688C34.737 58.3084 34.9271 58.6157 35.0625 58.9907C35.1979 59.3657 35.2656 59.8188 35.2656 60.3501V65.9829H33.8203V60.4204C33.8203 59.9777 33.7448 59.6235 33.5938 59.3579C33.4479 59.0923 33.2396 58.8996 32.9688 58.7798C32.6979 58.6548 32.3802 58.5923 32.0156 58.5923C31.5885 58.5923 31.2318 58.6678 30.9453 58.8188C30.6589 58.9699 30.4297 59.1782 30.2578 59.4438C30.0859 59.7095 29.9609 60.0142 29.8828 60.3579C29.8099 60.6965 29.7734 61.0558 29.7734 61.436ZM35.25 60.6392L34.2812 60.936C34.2865 60.4725 34.362 60.0272 34.5078 59.6001C34.6589 59.173 34.875 58.7928 35.1562 58.4595C35.4427 58.1261 35.7943 57.8631 36.2109 57.6704C36.6276 57.4725 37.1042 57.3735 37.6406 57.3735C38.0938 57.3735 38.4948 57.4334 38.8438 57.5532C39.1979 57.673 39.4948 57.8579 39.7344 58.1079C39.9792 58.3527 40.1641 58.6678 40.2891 59.0532C40.4141 59.4386 40.4766 59.897 40.4766 60.4282V65.9829H39.0234V60.4126C39.0234 59.9386 38.9479 59.5715 38.7969 59.311C38.651 59.0454 38.4427 58.8605 38.1719 58.7563C37.9062 58.647 37.5885 58.5923 37.2188 58.5923C36.901 58.5923 36.6198 58.647 36.375 58.7563C36.1302 58.8657 35.9245 59.0168 35.7578 59.2095C35.5911 59.397 35.4635 59.6131 35.375 59.8579C35.2917 60.1027 35.25 60.3631 35.25 60.6392ZM42.2812 61.8501V61.6704C42.2812 61.061 42.3698 60.4959 42.5469 59.9751C42.724 59.4491 42.9792 58.9933 43.3125 58.6079C43.6458 58.2173 44.0495 57.9152 44.5234 57.7017C44.9974 57.4829 45.5286 57.3735 46.1172 57.3735C46.7109 57.3735 47.2448 57.4829 47.7188 57.7017C48.1979 57.9152 48.6042 58.2173 48.9375 58.6079C49.276 58.9933 49.5339 59.4491 49.7109 59.9751C49.888 60.4959 49.9766 61.061 49.9766 61.6704V61.8501C49.9766 62.4595 49.888 63.0246 49.7109 63.5454C49.5339 64.0662 49.276 64.522 48.9375 64.9126C48.6042 65.298 48.2005 65.6001 47.7266 65.8188C47.2578 66.0324 46.7266 66.1392 46.1328 66.1392C45.5391 66.1392 45.0052 66.0324 44.5312 65.8188C44.0573 65.6001 43.651 65.298 43.3125 64.9126C42.9792 64.522 42.724 64.0662 42.5469 63.5454C42.3698 63.0246 42.2812 62.4595 42.2812 61.8501ZM43.7266 61.6704V61.8501C43.7266 62.272 43.776 62.6704 43.875 63.0454C43.974 63.4152 44.1224 63.7433 44.3203 64.0298C44.5234 64.3162 44.776 64.5428 45.0781 64.7095C45.3802 64.8709 45.7318 64.9517 46.1328 64.9517C46.5286 64.9517 46.875 64.8709 47.1719 64.7095C47.474 64.5428 47.724 64.3162 47.9219 64.0298C48.1198 63.7433 48.2682 63.4152 48.3672 63.0454C48.4714 62.6704 48.5234 62.272 48.5234 61.8501V61.6704C48.5234 61.2537 48.4714 60.8605 48.3672 60.4907C48.2682 60.1157 48.1172 59.785 47.9141 59.4985C47.7161 59.2069 47.4661 58.9777 47.1641 58.811C46.8672 58.6444 46.5182 58.561 46.1172 58.561C45.7214 58.561 45.3724 58.6444 45.0703 58.811C44.7734 58.9777 44.5234 59.2069 44.3203 59.4985C44.1224 59.785 43.974 60.1157 43.875 60.4907C43.776 60.8605 43.7266 61.2537 43.7266 61.6704ZM56.7109 63.7407C56.7109 63.5324 56.6641 63.3397 56.5703 63.1626C56.4818 62.9803 56.2969 62.8162 56.0156 62.6704C55.7396 62.5194 55.3229 62.3892 54.7656 62.2798C54.2969 62.1808 53.8724 62.0636 53.4922 61.9282C53.1172 61.7928 52.7969 61.6287 52.5312 61.436C52.2708 61.2433 52.0703 61.0168 51.9297 60.7563C51.7891 60.4959 51.7188 60.1912 51.7188 59.8423C51.7188 59.509 51.7917 59.1938 51.9375 58.897C52.0885 58.6001 52.2995 58.3371 52.5703 58.1079C52.8464 57.8787 53.1771 57.6991 53.5625 57.5688C53.9479 57.4386 54.3776 57.3735 54.8516 57.3735C55.5286 57.3735 56.1068 57.4933 56.5859 57.7329C57.0651 57.9725 57.4323 58.2928 57.6875 58.6938C57.9427 59.0897 58.0703 59.5298 58.0703 60.0142H56.625C56.625 59.7798 56.5547 59.5532 56.4141 59.3345C56.2786 59.1105 56.0781 58.9256 55.8125 58.7798C55.5521 58.634 55.2318 58.561 54.8516 58.561C54.4505 58.561 54.125 58.6235 53.875 58.7485C53.6302 58.8683 53.4505 59.022 53.3359 59.2095C53.2266 59.397 53.1719 59.5949 53.1719 59.8032C53.1719 59.9595 53.1979 60.1001 53.25 60.2251C53.3073 60.3449 53.4062 60.4569 53.5469 60.561C53.6875 60.66 53.8854 60.7537 54.1406 60.8423C54.3958 60.9308 54.7214 61.0194 55.1172 61.1079C55.8099 61.2642 56.3802 61.4517 56.8281 61.6704C57.276 61.8892 57.6094 62.1574 57.8281 62.4751C58.0469 62.7928 58.1562 63.1782 58.1562 63.6313C58.1562 64.0011 58.0781 64.3397 57.9219 64.647C57.7708 64.9543 57.5495 65.2199 57.2578 65.4438C56.9714 65.6626 56.6276 65.8345 56.2266 65.9595C55.8307 66.0793 55.3854 66.1392 54.8906 66.1392C54.1458 66.1392 53.5156 66.0063 53 65.7407C52.4844 65.4751 52.0938 65.1313 51.8281 64.7095C51.5625 64.2876 51.4297 63.8423 51.4297 63.3735H52.8828C52.9036 63.7694 53.0182 64.0845 53.2266 64.3188C53.4349 64.548 53.6901 64.7121 53.9922 64.811C54.2943 64.9048 54.5938 64.9517 54.8906 64.9517C55.2865 64.9517 55.6172 64.8996 55.8828 64.7954C56.1536 64.6912 56.3594 64.548 56.5 64.3657C56.6406 64.1834 56.7109 63.9751 56.7109 63.7407Z" fill="#D1D1D1"/>
</svg>
