<svg width="60" height="69" viewBox="0 0 60 69" fill="none" xmlns="http://www.w3.org/2000/svg">
<path d="M12.4999 17.134C12.6575 16.7856 12.7784 16.4145 12.9815 16.0946C13.3534 15.5107 13.9218 15.1907 14.5934 15.0364C14.7039 15.0113 14.8419 14.9211 14.8858 14.8245C15.2017 14.1204 15.4615 13.3896 15.8075 12.7026C16.1542 12.0147 16.5814 11.3675 17.0288 10.6082C16.6878 10.2907 16.2817 9.96019 15.9301 9.57852C14.6332 8.17364 15.2496 5.92258 17.0792 5.36712C18.0301 5.07884 18.8812 5.2981 19.6072 5.96562C19.9742 6.30344 20.3096 6.67618 20.6531 7.027C21.2134 6.67781 21.7396 6.34973 22.287 6.00866C22.4697 6.33998 22.6264 6.62502 22.7888 6.9198C22.3316 7.2089 21.9021 7.48094 21.4993 7.73675C22.274 8.51065 23.0333 9.26831 23.7674 10.0016C24.5754 9.1936 25.4256 8.34174 26.2596 7.50693C25.8674 7.01725 25.4597 6.50727 25.0099 5.94532C24.6306 6.09393 24.1604 6.27908 23.6732 6.46992C23.5311 6.16783 23.3914 5.87061 23.2282 5.52467C23.7471 5.32002 24.2465 5.11213 24.7541 4.92779C24.923 4.86689 24.9993 4.78974 25.0375 4.60703C25.2527 3.57976 25.878 2.89843 26.8792 2.61177C27.8846 2.3243 28.7673 2.59553 29.4925 3.34994C29.6492 3.51235 29.7865 3.69345 29.9643 3.90458C30.2055 3.65447 30.3809 3.46363 30.5652 3.28173C31.2839 2.57604 32.1431 2.33566 33.1054 2.61096C34.0758 2.88787 34.7117 3.53266 34.9301 4.53638C34.9796 4.76213 35.0722 4.87338 35.2947 4.94972C36.724 5.43615 38.0452 6.13859 39.3583 7.07247C39.6986 6.7046 40.0242 6.31075 40.3929 5.96237C41.8027 4.62814 44.1 5.25343 44.6417 7.11632C44.9153 8.05751 44.692 8.89801 44.0342 9.61263C43.6964 9.97968 43.3164 10.3086 43.0167 10.596C43.5835 11.6623 44.1163 12.6628 44.6465 13.6649C44.6944 13.755 44.735 13.85 44.7643 13.9475C44.9527 14.5874 45.2467 15.0023 45.9767 15.2703C47.5911 15.8631 47.9931 18.0297 46.8326 19.3144C46.6272 19.5418 46.3827 19.7326 46.0506 20.0364C46.3032 20.2378 46.5224 20.3815 46.7043 20.5634C47.4262 21.2837 47.6691 22.1526 47.3832 23.1295C47.099 24.1 46.4485 24.7253 45.4456 24.9429C45.2337 24.9892 45.1257 25.0777 45.0534 25.2888C44.5921 26.6409 43.9441 27.9013 43.1271 29.0739C43.076 29.1478 43.0297 29.2249 42.9452 29.3565C43.3172 29.7081 43.7037 30.0451 44.0553 30.4138C44.7805 31.1747 44.9511 32.2816 44.5166 33.2358C44.0862 34.1826 43.1223 34.7925 42.0861 34.7535C41.425 34.7283 40.8436 34.4888 40.3677 34.0235C40.0185 33.6808 39.6823 33.3251 39.3356 32.971C38.8419 33.2853 38.3733 33.5833 37.8617 33.9098C37.6863 33.602 37.5206 33.3137 37.3428 33.0027C37.7488 32.7404 38.137 32.4903 38.5048 32.2532C37.7382 31.4874 36.9846 30.7346 36.2562 30.007C35.4385 30.8255 34.5842 31.6806 33.7453 32.5211C34.1229 32.9954 34.5298 33.5054 34.9796 34.0698C35.4044 33.8968 35.9151 33.6889 36.4641 33.4656C36.6087 33.7595 36.7556 34.0592 36.927 34.4068C36.3472 34.639 35.7893 34.855 35.2387 35.0889C35.1331 35.1336 34.9999 35.2375 34.978 35.3358C34.723 36.4702 34.0409 37.1751 32.9121 37.4504C32.8942 37.4545 32.8813 37.4804 32.8658 37.4967H31.9092C31.1207 37.2823 30.5368 36.7618 29.9887 36.147C29.4478 36.7845 28.8591 37.2791 28.0819 37.4967H27.1253C27.1099 37.4813 27.0969 37.4553 27.079 37.4504C25.9519 37.1751 25.2681 36.4719 25.0131 35.3382C24.9912 35.2391 24.8604 35.1352 24.7549 35.0889C24.1637 34.8282 23.5457 34.6212 22.9724 34.3272C22.1871 33.9236 21.4335 33.4583 20.6271 32.997C20.3193 33.3145 19.9913 33.6629 19.6534 33.9991C19.1735 34.4766 18.5848 34.7267 17.9115 34.7535C16.8762 34.7949 15.9114 34.1867 15.4802 33.2414C15.0441 32.2856 15.209 31.1812 15.9333 30.4219C16.2915 30.0468 16.6902 29.7106 17.0662 29.3606C16.1063 28.0133 15.3982 26.6474 14.8866 25.1792C14.8541 25.085 14.7031 24.9957 14.5918 24.9705C13.9324 24.8203 13.3721 24.5068 13.0034 23.9376C12.7923 23.6119 12.6656 23.231 12.5007 22.8754C12.5007 22.5562 12.5007 22.2379 12.5007 21.9187C12.7151 21.1302 13.2373 20.5488 13.8504 20.0014C13.2194 19.4557 12.7143 18.8735 12.5007 18.0931C12.5007 17.7739 12.5007 17.4556 12.5007 17.1365L12.4999 17.134ZM36.3187 28.4202C36.3951 28.5217 36.4592 28.6329 36.5469 28.7215C38.0347 30.2132 39.5272 31.7001 41.0133 33.1935C41.4746 33.6572 42.0179 33.814 42.635 33.6207C43.7321 33.2764 44.0627 31.9243 43.2449 31.083C42.1657 29.9729 41.0596 28.8879 39.9641 27.7933C39.4574 27.2873 38.9474 26.7839 38.4764 26.3161C39.8464 24.9453 41.1928 23.5989 42.5595 22.2322C42.9534 22.6309 43.3756 23.0621 43.802 23.4877C44.1617 23.8482 44.6002 24.0131 45.1045 23.9392C45.7177 23.8498 46.1586 23.5161 46.3535 22.9192C46.5549 22.3037 46.4209 21.7531 45.9556 21.2934C45.5284 20.8712 45.0997 20.4513 44.6352 19.9941C45.1192 19.5239 45.5837 19.1041 46.0116 18.6493C46.7498 17.8641 46.5338 16.6979 45.5804 16.2083C44.977 15.8981 44.342 16.002 43.8004 16.529C43.3626 16.9546 42.9461 17.4036 42.5595 17.8015C41.1676 16.4105 39.8253 15.0681 38.4301 13.6746C38.6023 13.5236 38.8077 13.3603 38.9929 13.1768C40.3888 11.7865 41.7783 10.3906 43.1751 9.00114C43.6794 8.50009 43.8361 7.91459 43.5819 7.256C43.1816 6.2198 41.8636 5.97455 41.0466 6.78337C39.5337 8.28164 38.0322 9.79128 36.5299 11.3009C36.443 11.3886 36.3902 11.5112 36.3529 11.5689C34.9374 10.1535 33.5902 8.80705 32.2186 7.43547C32.6027 7.05948 33.0185 6.65507 33.431 6.24822C33.7412 5.94207 33.9556 5.58151 33.9556 5.1365C33.9556 4.46979 33.6251 3.98904 33.0396 3.69426C32.4793 3.41166 31.8524 3.50992 31.37 3.97361C30.912 4.41294 30.4848 4.88475 29.996 5.39149C29.5168 4.89369 29.0986 4.42999 28.6479 3.9996C28.021 3.39948 27.1813 3.39379 26.5569 3.95575C25.8812 4.56317 25.8406 5.48325 26.4878 6.16864C26.9158 6.62177 27.3819 7.03918 27.8001 7.44359C26.4107 8.83304 25.0691 10.1746 23.6537 11.59C23.5944 11.5015 23.5343 11.3708 23.4393 11.2757C21.9605 9.79128 20.4753 8.31332 18.9973 6.82804C18.5287 6.35704 17.9822 6.18082 17.3496 6.38221C16.2427 6.73465 15.9342 8.10299 16.773 8.94998C18.2721 10.4629 19.7817 11.9644 21.2906 13.4667C21.3783 13.5544 21.4985 13.6088 21.5699 13.6559C20.1561 15.0697 18.8089 16.4178 17.4113 17.8154C16.9955 17.3809 16.5781 16.8969 16.1112 16.4657C15.3738 15.7852 14.3303 15.9395 13.7838 16.7743C13.3778 17.3947 13.4508 18.1093 13.9982 18.6753C14.4302 19.122 14.8809 19.5507 15.347 20.0112C14.8671 20.4806 14.418 20.9004 13.9917 21.343C13.4322 21.9244 13.3818 22.6813 13.8341 23.3009C14.4164 24.0983 15.4177 24.2015 16.1526 23.5112C16.6074 23.0849 17.0223 22.6163 17.4308 22.1916C18.8235 23.5835 20.1659 24.925 21.5927 26.351C21.4985 26.4103 21.3637 26.4655 21.2686 26.5597C19.7671 28.0531 18.2648 29.5465 16.7746 31.0513C15.9342 31.8999 16.2411 33.2634 17.3488 33.6174C17.9651 33.814 18.51 33.6613 18.9721 33.1976C20.4679 31.6977 21.9686 30.2035 23.4629 28.7028C23.5498 28.6159 23.596 28.4892 23.6253 28.4389C25.0505 29.8616 26.3985 31.2072 27.7717 32.578C27.3714 32.9694 26.9337 33.3852 26.5106 33.8148C26.1492 34.1818 25.951 34.6228 26.0582 35.1466C26.1841 35.7645 26.5609 36.1876 27.1562 36.389C27.762 36.5945 28.2744 36.3874 28.7088 35.957C29.1352 35.5347 29.5518 35.1035 29.996 34.6528C30.4718 35.1352 30.9014 35.59 31.3521 36.0228C31.9555 36.6018 32.8991 36.592 33.4781 36.0195C34.0709 35.4332 34.1205 34.505 33.5471 33.8976C33.1038 33.4282 32.61 33.0068 32.1577 32.5812C33.5707 31.169 34.9131 29.8267 36.3212 28.4194L36.3187 28.4202ZM34.974 5.94369C34.5298 6.5024 34.1172 7.02131 33.725 7.51505C34.5663 8.35554 35.4182 9.20578 36.2611 10.0471C37.0001 9.3081 37.7561 8.55288 38.5308 7.77816C37.411 6.98233 36.1969 6.36597 34.9732 5.94369H34.974ZM42.4921 16.2684C42.9915 15.8729 43.5104 15.462 44.0586 15.0275C43.6266 13.7972 43.0208 12.5832 42.2355 11.4926C41.4551 12.273 40.7007 13.0266 39.9706 13.7558C40.8062 14.589 41.6581 15.4376 42.4921 16.2684ZM39.9544 26.2381C40.7145 26.9974 41.4673 27.7502 42.2355 28.5184C43.0183 27.4075 43.6387 26.1984 44.0529 24.9843C43.491 24.5352 42.9753 24.1235 42.4726 23.7215C41.6321 24.5612 40.7892 25.4042 39.9552 26.2381H39.9544ZM20.053 13.7647C19.2896 13.0014 18.5344 12.2462 17.7629 11.4755C16.9728 12.5929 16.3532 13.8053 15.935 15.0275C16.4937 15.4733 17.011 15.8851 17.5234 16.2943C18.3614 15.4563 19.2052 14.6117 20.0522 13.7647H20.053ZM17.5047 23.7362C16.9858 24.1463 16.4734 24.5499 15.9333 24.9762C16.3646 26.2057 16.9752 27.4189 17.7597 28.5176C18.5385 27.7429 19.2937 26.9901 20.0319 26.2552C19.1906 25.4171 18.3395 24.5677 17.5047 23.7362ZM23.7438 29.9834C23.0008 30.7256 22.248 31.4784 21.4838 32.2426C22.5931 33.0214 23.8023 33.6442 25.0172 34.0568C25.4622 33.5005 25.869 32.9913 26.2604 32.5016C25.4273 31.6677 24.577 30.8174 23.7438 29.9842V29.9834Z" fill="#D1D1D1"/>
<path d="M30.0205 9.76123C31.3369 11.0776 32.6719 12.4126 33.9721 13.712C32.6386 15.0446 31.2922 16.3902 29.9604 17.722C28.6701 16.4291 27.3301 15.086 26.0146 13.7672C27.3342 12.4476 28.6757 11.1068 30.0213 9.76123H30.0205ZM27.5007 13.7306C28.3266 14.5679 29.1768 15.4295 30.0027 16.2667C30.8383 15.4287 31.6877 14.5776 32.5079 13.755C31.6772 12.9242 30.8269 12.0748 29.997 11.2449C29.1646 12.074 28.3127 12.9218 27.5007 13.7306Z" fill="#D1D1D1"/>
<path d="M27.7107 20.0259C26.4203 21.317 25.0796 22.6578 23.7746 23.9628C22.459 22.6472 21.1134 21.3016 19.7889 19.9771C21.0785 18.6892 22.42 17.3493 23.7275 16.0435C25.0398 17.3558 26.3862 18.7014 27.7099 20.0259H27.7107ZM26.2863 20.0169C25.4288 19.1594 24.5777 18.3083 23.7811 17.5117C22.939 18.3481 22.0798 19.2016 21.2629 20.0129C22.0822 20.8412 22.9268 21.6947 23.76 22.5376C24.594 21.706 25.4393 20.8623 26.2855 20.0177L26.2863 20.0169Z" fill="#D1D1D1"/>
<path d="M36.2195 24.0006C34.9032 22.6818 33.5681 21.3451 32.2656 20.0409C33.5941 18.7124 34.9413 17.3644 36.2691 16.0366C37.5684 17.3351 38.9115 18.6767 40.2287 19.993C38.9067 21.3143 37.5651 22.655 36.2195 24.0006ZM36.278 17.4862C35.4213 18.3429 34.571 19.1923 33.7354 20.0279C34.5605 20.853 35.4115 21.7032 36.2025 22.4942C37.0446 21.6521 37.9005 20.7962 38.7491 19.9484C37.9395 19.1412 37.0933 18.299 36.278 17.4862Z" fill="#D1D1D1"/>
<path d="M33.9879 26.2414C32.6512 27.578 31.3105 28.9188 29.9901 30.2392C28.6721 28.9212 27.3314 27.5805 26.0158 26.2657C27.3379 24.9437 28.6851 23.5964 30.0153 22.2671C31.3235 23.5753 32.6642 24.9169 33.9887 26.2414H33.9879ZM29.9958 28.7913C30.8476 27.9418 31.6987 27.0932 32.5116 26.2828C31.6678 25.439 30.8127 24.5839 29.9722 23.7434C29.1463 24.5644 28.2937 25.4122 27.4475 26.2535C28.288 27.0908 29.1398 27.9386 29.9958 28.7913Z" fill="#D1D1D1"/>
<path d="M30.5107 19.492V20.5323C30.2021 20.5323 29.9105 20.5412 29.6206 20.5242C29.5654 20.5209 29.4745 20.4178 29.4704 20.3561C29.4542 20.0759 29.4631 19.7949 29.4631 19.4912H30.5107V19.492Z" fill="#D1D1D1"/>
<path d="M24.2393 14.2581H23.2502V13.2617H24.2393V14.2581Z" fill="#D1D1D1"/>
<path d="M35.7534 13.2559H36.7417V14.2425H35.7534V13.2559Z" fill="#D1D1D1"/>
<path d="M24.2472 25.7637V26.743H23.2548V25.7637H24.2472Z" fill="#D1D1D1"/>
<path d="M35.7479 25.7534H36.7322V26.7401H35.7479V25.7534Z" fill="#D1D1D1"/>
<path d="M7.78906 61.5591L10.0469 53.6216H11.1406L10.5078 56.7075L8.07812 64.9966H6.99219L7.78906 61.5591ZM5.45312 53.6216L7.25 61.4028L7.78906 64.9966H6.71094L3.95312 53.6216H5.45312ZM14.0625 61.395L15.8203 53.6216H17.3281L14.5781 64.9966H13.5L14.0625 61.395ZM11.3047 53.6216L13.5 61.5591L14.2969 64.9966H13.2109L10.8672 56.7075L10.2266 53.6216H11.3047ZM23.5 63.5513V59.1997C23.5 58.8664 23.4323 58.5773 23.2969 58.3325C23.1667 58.0825 22.9688 57.8898 22.7031 57.7544C22.4375 57.619 22.1094 57.5513 21.7188 57.5513C21.3542 57.5513 21.0339 57.6138 20.7578 57.7388C20.487 57.8638 20.2734 58.0278 20.1172 58.231C19.9661 58.4341 19.8906 58.6528 19.8906 58.8872H18.4453C18.4453 58.5851 18.5234 58.2856 18.6797 57.9888C18.8359 57.6919 19.0599 57.4237 19.3516 57.1841C19.6484 56.9393 20.0026 56.7466 20.4141 56.606C20.8307 56.4601 21.2943 56.3872 21.8047 56.3872C22.4193 56.3872 22.9609 56.4914 23.4297 56.6997C23.9036 56.908 24.2734 57.2231 24.5391 57.645C24.8099 58.0617 24.9453 58.5851 24.9453 59.2153V63.1528C24.9453 63.4341 24.9688 63.7336 25.0156 64.0513C25.0677 64.369 25.1432 64.6424 25.2422 64.8716V64.9966H23.7344C23.6615 64.8299 23.6042 64.6086 23.5625 64.3325C23.5208 64.0513 23.5 63.7909 23.5 63.5513ZM23.75 59.8716L23.7656 60.8872H22.3047C21.8932 60.8872 21.526 60.9211 21.2031 60.9888C20.8802 61.0513 20.6094 61.1476 20.3906 61.2778C20.1719 61.408 20.0052 61.5721 19.8906 61.77C19.776 61.9627 19.7188 62.1893 19.7188 62.4497C19.7188 62.7153 19.7786 62.9575 19.8984 63.1763C20.0182 63.395 20.1979 63.5695 20.4375 63.6997C20.6823 63.8247 20.9818 63.8872 21.3359 63.8872C21.7786 63.8872 22.1693 63.7935 22.5078 63.606C22.8464 63.4185 23.1146 63.1893 23.3125 62.9185C23.5156 62.6476 23.625 62.3846 23.6406 62.1294L24.2578 62.8247C24.2214 63.0435 24.1224 63.2856 23.9609 63.5513C23.7995 63.8169 23.5833 64.0721 23.3125 64.3169C23.0469 64.5565 22.7292 64.757 22.3594 64.9185C21.9948 65.0747 21.5833 65.1528 21.125 65.1528C20.5521 65.1528 20.0495 65.0409 19.6172 64.8169C19.1901 64.5929 18.8568 64.2935 18.6172 63.9185C18.3828 63.5382 18.2656 63.1138 18.2656 62.645C18.2656 62.1919 18.3542 61.7935 18.5312 61.4497C18.7083 61.1007 18.9635 60.8117 19.2969 60.5825C19.6302 60.3481 20.0312 60.1711 20.5 60.0513C20.9688 59.9315 21.4922 59.8716 22.0703 59.8716H23.75ZM29.375 64.9966H27.9297V55.6528C27.9297 55.0435 28.0391 54.5304 28.2578 54.1138C28.4818 53.6919 28.8021 53.3742 29.2188 53.1606C29.6354 52.9419 30.1302 52.8325 30.7031 52.8325C30.8698 52.8325 31.0365 52.8429 31.2031 52.8638C31.375 52.8846 31.5417 52.9159 31.7031 52.9575L31.625 54.1372C31.5156 54.1112 31.3906 54.0929 31.25 54.0825C31.1146 54.0721 30.9792 54.0669 30.8438 54.0669C30.5365 54.0669 30.2708 54.1294 30.0469 54.2544C29.8281 54.3742 29.6615 54.5513 29.5469 54.7856C29.4323 55.02 29.375 55.3091 29.375 55.6528V64.9966ZM31.2578 56.5435V57.6528H26.5938V56.5435H31.2578ZM33.9453 64.9966H32.5V55.6528C32.5 55.0435 32.612 54.5304 32.8359 54.1138C33.0651 53.6919 33.3932 53.3742 33.8203 53.1606C34.2526 52.9419 34.776 52.8325 35.3906 52.8325C35.6198 52.8325 35.9062 52.856 36.25 52.9028C36.599 52.9497 36.9688 53.0096 37.3594 53.0825C37.7552 53.1554 38.1406 53.231 38.5156 53.3091L37.8438 54.356C37.349 54.2622 36.9036 54.1919 36.5078 54.145C36.112 54.0929 35.776 54.0669 35.5 54.0669C35.1615 54.0669 34.875 54.1294 34.6406 54.2544C34.4115 54.3742 34.237 54.5513 34.1172 54.7856C34.0026 55.02 33.9453 55.3091 33.9453 55.6528V64.9966ZM37.0703 64.9966V53.3091H38.5156V64.9966H37.0703ZM35.7422 56.5435V57.6528H31.1641V56.5435H35.7422ZM44.3828 65.1528C43.7943 65.1528 43.2604 65.0539 42.7812 64.856C42.3073 64.6528 41.8984 64.369 41.5547 64.0044C41.2161 63.6398 40.9557 63.2075 40.7734 62.7075C40.5911 62.2075 40.5 61.6606 40.5 61.0669V60.7388C40.5 60.0513 40.6016 59.4393 40.8047 58.9028C41.0078 58.3612 41.2839 57.9028 41.6328 57.5278C41.9818 57.1528 42.3776 56.869 42.8203 56.6763C43.263 56.4836 43.7214 56.3872 44.1953 56.3872C44.7995 56.3872 45.3203 56.4914 45.7578 56.6997C46.2005 56.908 46.5625 57.1997 46.8438 57.5747C47.125 57.9445 47.3333 58.382 47.4688 58.8872C47.6042 59.3872 47.6719 59.9341 47.6719 60.5278V61.1763H41.3594V59.9966H46.2266V59.8872C46.2057 59.5122 46.1276 59.1476 45.9922 58.7935C45.862 58.4393 45.6536 58.1476 45.3672 57.9185C45.0807 57.6893 44.6901 57.5747 44.1953 57.5747C43.8672 57.5747 43.5651 57.645 43.2891 57.7856C43.013 57.9211 42.776 58.1242 42.5781 58.395C42.3802 58.6659 42.2266 58.9966 42.1172 59.3872C42.0078 59.7778 41.9531 60.2284 41.9531 60.7388V61.0669C41.9531 61.4679 42.0078 61.8455 42.1172 62.1997C42.2318 62.5487 42.3958 62.856 42.6094 63.1216C42.8281 63.3872 43.0911 63.5955 43.3984 63.7466C43.7109 63.8976 44.0651 63.9731 44.4609 63.9731C44.9714 63.9731 45.4036 63.869 45.7578 63.6606C46.112 63.4523 46.4219 63.1737 46.6875 62.8247L47.5625 63.52C47.3802 63.7961 47.1484 64.0591 46.8672 64.3091C46.5859 64.5591 46.2396 64.7622 45.8281 64.9185C45.4219 65.0747 44.9401 65.1528 44.3828 65.1528ZM54.2812 62.7544C54.2812 62.5461 54.2344 62.3534 54.1406 62.1763C54.0521 61.994 53.8672 61.8299 53.5859 61.6841C53.3099 61.533 52.8932 61.4028 52.3359 61.2935C51.8672 61.1945 51.4427 61.0773 51.0625 60.9419C50.6875 60.8065 50.3672 60.6424 50.1016 60.4497C49.8411 60.257 49.6406 60.0304 49.5 59.77C49.3594 59.5096 49.2891 59.2049 49.2891 58.856C49.2891 58.5226 49.362 58.2075 49.5078 57.9106C49.6589 57.6138 49.8698 57.3507 50.1406 57.1216C50.4167 56.8924 50.7474 56.7127 51.1328 56.5825C51.5182 56.4523 51.9479 56.3872 52.4219 56.3872C53.099 56.3872 53.6771 56.507 54.1562 56.7466C54.6354 56.9862 55.0026 57.3065 55.2578 57.7075C55.513 58.1034 55.6406 58.5435 55.6406 59.0278H54.1953C54.1953 58.7935 54.125 58.5669 53.9844 58.3481C53.849 58.1242 53.6484 57.9393 53.3828 57.7935C53.1224 57.6476 52.8021 57.5747 52.4219 57.5747C52.0208 57.5747 51.6953 57.6372 51.4453 57.7622C51.2005 57.882 51.0208 58.0356 50.9062 58.2231C50.7969 58.4106 50.7422 58.6086 50.7422 58.8169C50.7422 58.9731 50.7682 59.1138 50.8203 59.2388C50.8776 59.3586 50.9766 59.4705 51.1172 59.5747C51.2578 59.6737 51.4557 59.7674 51.7109 59.856C51.9661 59.9445 52.2917 60.033 52.6875 60.1216C53.3802 60.2778 53.9505 60.4653 54.3984 60.6841C54.8464 60.9028 55.1797 61.1711 55.3984 61.4888C55.6172 61.8065 55.7266 62.1919 55.7266 62.645C55.7266 63.0148 55.6484 63.3534 55.4922 63.6606C55.3411 63.9679 55.1198 64.2336 54.8281 64.4575C54.5417 64.6763 54.1979 64.8481 53.7969 64.9731C53.401 65.0929 52.9557 65.1528 52.4609 65.1528C51.7161 65.1528 51.0859 65.02 50.5703 64.7544C50.0547 64.4888 49.6641 64.145 49.3984 63.7231C49.1328 63.3013 49 62.856 49 62.3872H50.4531C50.474 62.783 50.5885 63.0981 50.7969 63.3325C51.0052 63.5617 51.2604 63.7257 51.5625 63.8247C51.8646 63.9185 52.1641 63.9653 52.4609 63.9653C52.8568 63.9653 53.1875 63.9132 53.4531 63.8091C53.724 63.7049 53.9297 63.5617 54.0703 63.3794C54.2109 63.1971 54.2812 62.9888 54.2812 62.7544Z" fill="#D1D1D1"/>
</svg>
