<svg width="58" height="56" viewBox="0 0 58 56" fill="none" xmlns="http://www.w3.org/2000/svg">
<path d="M33.0651 6.04006C33.3662 6.39454 33.6423 6.77575 33.9772 7.09639C34.3477 7.44909 34.7717 7.74657 35.1725 8.06721C35.2295 7.99952 35.2883 7.93183 35.3453 7.86236C35.1529 7.47937 34.8857 7.1142 34.7931 6.70806C34.7254 6.41414 34.7752 5.90646 34.9658 5.77286C35.6445 5.3008 35.4023 4.84478 35.0941 4.33532C33.783 2.18168 30.9792 0.9579 28.4354 1.3872C26.109 1.78088 24.4719 3.03138 23.6757 5.25092C22.801 7.69135 23.257 9.99284 25.0402 11.8151C26.5383 13.3453 28.341 14.5762 29.9638 15.9906C30.9828 16.8795 31.9928 17.8004 32.8763 18.8194C33.8311 19.9238 34.1981 21.2954 34.1411 22.9075C34.0021 22.7187 33.9113 22.635 33.8685 22.5317C32.9921 20.4653 31.4815 18.9726 29.6076 17.8076C28.2822 16.981 26.9338 16.1901 25.628 15.3351C22.6995 13.4166 20.7578 10.8871 20.7828 7.1997C17.9183 7.85167 15.9197 6.61008 15.1626 3.73678C14.8865 2.68758 15.102 2.20662 16.1673 1.82541C18.3512 1.04341 20.3998 1.13069 22.1419 2.93341C24.6643 -0.0628007 27.8351 -0.620359 31.396 0.612326C32.235 0.902683 33.0313 1.43708 33.7207 2.01067C34.2693 2.46669 34.6737 2.48273 35.1849 2.08727C36.252 1.26073 37.3439 1.50121 38.4163 2.05164C38.655 2.17455 38.8973 2.42751 38.9863 2.67689C39.478 4.05387 38.0155 5.92605 36.5655 5.69982C35.673 5.56088 35.5608 6.04896 35.8013 6.56376C36.2413 7.50253 36.7668 8.43773 37.4401 9.21618C37.9834 9.84499 38.7957 10.2404 39.5813 10.8087C39.7327 10.9387 39.7915 10.9993 39.8485 11.0599C39.7042 11.1293 39.5671 11.2309 39.4139 11.2629C38.3183 11.5016 37.6753 12.1393 37.2477 13.2064C36.8897 14.0988 36.2092 14.863 35.673 15.6842C35.0175 15.6878 34.2943 15.8766 33.7189 15.6646C30.8598 14.6136 28.2021 13.1725 26.4795 10.5593C25.8596 9.61698 25.4962 8.40923 25.343 7.2763C25.1061 5.5199 26.6559 3.94342 28.5067 3.80626C28.8879 3.77776 29.2744 3.81694 29.7786 3.87573C30.981 4.36203 31.5385 5.08347 31.38 5.84054C31.2304 6.55664 30.5285 7.04651 29.62 6.98238C29.3564 6.96457 29.1088 6.73477 28.8523 6.60295C29.1034 6.43907 29.3528 6.26985 29.6076 6.11131C29.8071 5.9884 30.0137 5.87617 30.2186 5.76039C30.0297 5.57156 29.873 5.28655 29.6467 5.20817C28.8059 4.91959 27.7514 5.5395 27.5715 6.37316C27.4129 7.11064 28.0132 7.90867 28.9021 8.05831C30.1687 8.27029 31.2161 7.93005 32.0035 6.83453C32.2564 6.49964 32.7071 6.30369 33.0651 6.04006Z" fill="#F9F9F9"/>
<path d="M39.5816 51.776C38.8798 51.776 38.2599 51.776 37.5509 51.776C37.5509 52.925 37.5509 54.0632 37.5509 55.2371C36.8811 55.2371 36.3004 55.2371 35.652 55.2371C35.652 52.2338 35.652 49.2358 35.652 46.2129C37.6542 46.2129 39.6832 46.106 41.6943 46.2503C42.9929 46.3429 43.7393 47.2657 43.9121 48.4289C44.1187 49.8148 43.5968 50.8177 42.2002 51.6709C42.7649 52.8395 43.3331 54.0134 43.8996 55.1855C43.8052 55.2354 43.7642 55.2692 43.7161 55.2799C42.129 55.6273 41.2775 54.8791 40.866 53.4095C40.7484 52.9909 40.54 52.583 40.2995 52.2196C40.1677 52.0183 39.8809 51.9203 39.5816 51.776ZM39.733 48.0601C39.008 48.0601 38.283 48.0601 37.5936 48.0601C37.5936 48.7264 37.5936 49.2697 37.5936 49.8397C38.7551 49.8397 39.8471 49.8522 40.9408 49.8344C41.5393 49.8255 41.974 49.5885 41.9775 48.8956C41.9829 48.2027 41.5162 48.0815 40.9711 48.0655C40.6166 48.0548 40.2621 48.0619 39.733 48.0601Z" fill="#F7F6F6"/>
<path d="M30.737 38.6929C30.9383 38.9494 31.1021 39.1543 31.3694 39.491C31.3694 37.5475 31.3694 35.7484 31.3694 33.894C32.0587 33.894 32.6662 33.894 33.3288 33.894C33.3288 36.8617 33.3288 39.8419 33.3288 42.8773C32.3758 43.0679 31.56 43.0821 30.8634 42.0739C29.7465 40.4547 28.464 38.9494 27.1262 37.2358C27.1262 39.2398 27.1262 41.0425 27.1262 42.9022C26.4813 42.9022 25.9042 42.9022 25.2611 42.9022C25.2611 39.9292 25.2611 36.9294 25.2611 33.9225C26.3068 33.6322 27.1048 33.8619 27.7728 34.8488C28.667 36.1688 29.7163 37.3819 30.737 38.6929Z" fill="#F8F8F7"/>
<path d="M1.30395 38.2352C0.256513 36.7175 0.612784 35.1713 2.15721 34.2895C4.07929 33.1922 6.74597 33.536 8.52019 35.1374C8.19064 35.6059 7.85753 36.078 7.65623 36.3648C6.46451 36.0958 5.41174 35.809 4.33936 35.6398C3.96884 35.581 3.50391 35.7359 3.1708 35.9372C2.92676 36.0851 2.70943 36.4681 2.70587 36.7495C2.70409 36.8992 3.16545 37.1646 3.43622 37.1931C4.43199 37.2964 5.44914 37.2394 6.43601 37.3926C8.05525 37.6438 8.91565 38.5629 9.02075 39.9648C9.11338 41.2118 8.28149 42.391 6.81009 42.8043C4.24851 43.5239 1.89714 43.2211 0 41.0586C0.432868 40.6471 0.855046 40.2481 1.13472 39.9809C2.22312 40.4137 3.16367 40.9125 4.16479 41.1405C4.8132 41.2866 5.58096 41.1298 6.23472 40.9232C6.57496 40.8145 6.78693 40.3015 7.0577 39.972C6.70677 39.7083 6.38613 39.2808 6.00136 39.2149C5.25141 39.0849 4.44624 39.263 3.70342 39.1151C2.89647 38.9566 2.13227 38.5718 1.30395 38.2352Z" fill="#F7F6F6"/>
<path d="M25.7476 26.3663C25.1295 25.636 24.9869 24.8077 25.1882 23.8831C25.5552 22.1927 26.4138 20.8282 27.8353 19.8377C28.6423 19.2748 29.5258 19.2232 30.306 19.827C32.0322 21.1648 33.0386 22.9016 32.9015 25.1532C32.8338 26.2808 32.2335 27.0913 31.1771 27.5099C30.0656 27.9499 28.9148 28.0354 27.8442 27.4512C27.4345 27.2267 27.1798 26.7172 26.8716 26.2131C27.374 25.3011 28.0526 25.3866 28.9148 25.6449C28.5603 25.8765 28.3181 26.035 28.0651 26.2007C28.6708 26.8883 29.6559 27.0771 30.5839 26.6335C30.885 26.4892 31.2733 26.1258 31.2715 25.8622C31.2698 25.5843 30.8903 25.114 30.6142 25.0642C29.647 24.8878 28.6512 24.772 27.6697 24.797C26.8164 24.8183 26.1929 25.3225 25.9809 26.2131C25.9809 26.2131 25.9685 26.2203 25.9346 26.2488C25.8491 26.3058 25.7975 26.336 25.7476 26.3663Z" fill="#F8F8F7"/>
<path d="M54.9335 55.2521C54.8462 55.2076 54.8141 55.1862 54.8088 55.1613C54.4561 53.314 53.2056 52.9827 51.5899 53.2303C51.2728 53.2784 50.9379 53.2606 50.6155 53.2321C50.1773 53.1911 49.951 53.339 49.7569 53.7683C49.0372 55.3554 49.014 55.3448 47.0065 55.2201C47.6157 53.8538 48.2018 52.5249 48.8003 51.2014C49.4042 49.8618 50.0811 48.5525 50.603 47.1827C50.9254 46.3365 51.3619 45.9357 52.2704 46.1139C52.4681 46.1531 52.6801 46.1192 52.9081 46.1192C54.253 49.1404 55.5872 52.1401 56.982 55.2753C56.2552 55.2753 55.6282 55.2753 54.9335 55.2521ZM52.7495 50.5262C52.5091 50.0114 52.2686 49.4984 51.9693 48.8571C51.5471 49.828 51.1819 50.6723 50.7918 51.5701C51.6415 51.5701 52.3701 51.5701 53.186 51.5701C53.0452 51.2281 52.9259 50.9395 52.7495 50.5262Z" fill="#F7F6F6"/>
<path d="M29.5241 54.6602C29.264 53.3776 28.4838 53.0285 27.3437 53.2369C27.1442 53.2743 26.9251 53.2743 26.7256 53.2369C25.4519 53.0053 24.5986 53.383 24.2673 54.7439C24.2121 54.9737 23.7365 55.1857 23.4229 55.2498C22.999 55.3353 22.5447 55.2712 21.9783 55.2712C22.103 54.9577 22.1974 54.6976 22.3114 54.4447C23.4016 52.0327 24.5505 49.6457 25.5623 47.2C25.9329 46.3039 26.4049 45.9566 27.3188 46.1169C27.4898 46.1472 27.6715 46.1205 27.8781 46.1205C29.2195 49.1345 30.5537 52.1325 32.0019 55.3888C31.0721 54.9791 30.1155 55.8679 29.5241 54.6602ZM27.8959 51.6016C27.9547 51.4983 28.0883 51.3612 28.058 51.2953C27.716 50.5186 27.3508 49.7526 26.934 48.8637C26.5047 49.8524 26.1413 50.6914 25.7458 51.6016C26.5065 51.6034 27.1228 51.6034 27.8959 51.6016Z" fill="#F7F6F6"/>
<path d="M7.68458 49.0364C6.61933 48.1404 5.46146 47.6719 4.12723 47.9658C2.61308 48.2989 1.68678 49.7756 1.98783 51.2506C2.28353 52.697 3.83687 53.7355 5.42583 53.5253C6.50889 53.3828 7.47438 52.9945 8.17445 51.9987C8.62691 52.4726 9.04553 52.909 9.4588 53.3401C7.7113 55.7306 4.0435 56.1902 1.7135 54.3448C-0.354642 52.7059 -0.598687 49.5191 1.26282 47.4848C3.43785 45.1068 7.18758 45.602 9.49086 48.1689C8.87274 48.4859 8.29914 48.7816 7.68458 49.0364Z" fill="#F8F8F7"/>
<path d="M56.3635 42.9495C54.8119 42.9744 54.7977 42.9798 54.2241 41.6028C54.0335 41.145 53.8019 40.9063 53.255 40.9473C52.4908 41.0043 51.7159 40.9936 50.9482 40.9562C50.314 40.9241 49.7653 40.9704 49.6211 41.7257C49.3218 43.2862 48.1568 42.9994 46.9686 42.9192C48.342 39.8785 49.6977 36.8751 51.0461 33.8861C52.8186 33.7542 52.8221 33.7525 53.5151 35.3004C54.6427 37.8175 55.7667 40.3363 56.9246 42.9228C56.709 42.9335 56.5719 42.9406 56.3635 42.9495ZM52.1185 36.9339C52.0312 36.8841 51.9422 36.8342 51.8549 36.7843C51.4968 37.5877 51.1405 38.3911 50.7576 39.2497C51.6518 39.2497 52.3697 39.2497 53.1784 39.2497C52.8204 38.4712 52.4979 37.7623 52.1185 36.9339Z" fill="#F9F9F9"/>
<path d="M21.0307 41.2611C21.2837 41.8258 21.5099 42.3299 21.7397 42.8429C19.7464 43.2241 19.7392 43.2188 18.7827 40.9618C17.639 40.9618 16.4616 40.9333 15.2894 40.985C15.0507 40.9957 14.7265 41.2504 14.609 41.4784C13.7593 43.135 13.7717 43.1404 11.8425 42.8643C13.1625 39.9607 14.4451 37.0607 15.8292 34.2106C15.9646 33.9327 16.7216 33.881 17.1937 33.8721C17.4484 33.8685 17.8332 34.1233 17.9436 34.362C18.9893 36.6296 19.9886 38.9169 21.0307 41.2611ZM15.9485 38.4911C15.8488 38.7209 15.7508 38.9525 15.6208 39.2535C16.4562 39.2535 17.1937 39.2535 18.0292 39.2535C17.6159 38.3486 17.2382 37.5185 16.8071 36.5762C16.5043 37.2495 16.2531 37.8071 15.9485 38.4911Z" fill="#F8F8F7"/>
<path d="M40.3406 39.3612C40.3406 38.1517 40.3406 37.0312 40.3406 35.8199C39.3484 35.8199 38.3882 35.8199 37.3925 35.8199C37.3925 35.1484 37.3925 34.5641 37.3925 33.9121C39.9433 33.9121 42.5281 33.9121 45.1556 33.9121C45.1556 34.5124 45.1556 35.1216 45.1556 35.7985C44.199 35.7985 43.2673 35.7985 42.2751 35.7985C42.2751 38.1927 42.2751 40.5191 42.2751 42.9061C41.6125 42.9061 41.0068 42.9061 40.3406 42.9061C40.3406 41.75 40.3406 40.5992 40.3406 39.3612Z" fill="#F7F6F6"/>
<path d="M17.254 53.3689C17.9594 53.3689 18.5775 53.3689 19.2509 53.3689C19.2509 53.9923 19.2509 54.5677 19.2509 55.2036C17.0473 55.2036 14.8509 55.2036 12.6064 55.2036C12.6064 52.1932 12.6064 49.1934 12.6064 46.1562C13.2174 46.1562 13.7982 46.1562 14.4501 46.1562C14.4501 48.5379 14.4501 50.9195 14.4501 53.3671C15.4014 53.3689 16.2831 53.3689 17.254 53.3689Z" fill="#FCFCFB"/>
<path d="M35.725 15.7149C36.2131 14.8652 36.8935 14.101 37.2516 13.2086C37.6791 12.1416 38.3222 11.5038 39.4177 11.2652C39.5691 11.2313 39.7081 11.1316 39.8524 11.0621C39.7954 11.0015 39.7366 10.9392 39.6439 10.8198C40.4634 10.6061 40.8838 11.2384 41.3701 11.8387C40.7395 12.1897 40.0964 12.4034 39.4997 12.7063C39.1291 12.8951 38.7782 13.1801 38.5163 13.5007C38.4095 13.6325 38.5591 13.9746 38.5929 14.2204C38.8245 14.1652 39.0757 14.1474 39.2823 14.044C39.4694 13.9514 39.6119 13.7644 39.7722 13.6183C39.8613 13.6664 39.9486 13.7163 40.0376 13.7644C39.8773 14.1135 39.7793 14.5107 39.5477 14.8029C38.7746 15.7737 37.6969 16.2297 36.5034 16.4471C36.2594 16.2119 36.0171 15.9768 35.725 15.7149Z" fill="#141312"/>
<path d="M36.5176 16.5149C37.695 16.2352 38.771 15.7792 39.5459 14.8083C39.7774 14.5162 39.8772 14.119 40.0357 13.7698C39.9467 13.7217 39.8594 13.6718 39.7703 13.6238C39.6082 13.7698 39.4675 13.9551 39.2804 14.0495C39.072 14.1528 38.8226 14.1706 38.5911 14.2258C38.5572 13.98 38.4076 13.638 38.5145 13.5062C38.7763 13.1855 39.1273 12.9005 39.4978 12.7117C40.0945 12.4089 40.7376 12.1969 41.4003 11.8994C42.225 12.3038 41.9543 13.0448 41.8492 13.6576C41.5481 15.4229 38.2384 17.2078 36.5176 16.5149Z" fill="#F1F1F0"/>
<path d="M33.0282 6.00286C32.7076 6.30391 32.2569 6.49985 32.0093 6.84365C31.2219 7.93917 30.1727 8.27941 28.908 8.06743C28.0191 7.9178 27.4187 7.11798 27.5773 6.38229C27.7572 5.54862 28.8118 4.92871 29.6526 5.21729C29.8806 5.29567 30.0355 5.5789 30.2244 5.76951C30.0213 5.88707 29.8129 5.99752 29.6134 6.12043C29.3586 6.27897 29.1092 6.4482 28.8581 6.61208C29.1128 6.7439 29.3622 6.97369 29.6258 6.99151C30.5343 7.05385 31.2362 6.56577 31.3858 5.84967C31.5443 5.0926 30.985 4.37116 29.861 3.88663C31.2362 3.72453 31.5248 3.93829 31.7243 5.25292C31.9327 5.27073 32.1411 5.28855 32.3317 5.36871C32.3335 5.42571 32.3495 5.42037 32.3673 5.41502C32.574 5.59672 32.7824 5.78019 33.0282 6.00286Z" fill="#141312"/>
<path d="M26.0505 26.2107C26.1913 25.3218 26.8147 24.8177 27.668 24.7963C28.6495 24.7714 29.6453 24.8872 30.6126 25.0635C30.8887 25.1134 31.2699 25.5837 31.2699 25.8616C31.2717 26.1234 30.8833 26.4886 30.5823 26.6329C29.6542 27.0765 28.6709 26.8876 28.0635 26.2C28.3164 26.0344 28.5587 25.8758 28.9132 25.6443C28.051 25.386 27.3741 25.3005 26.8593 26.1466C26.5956 26.2089 26.3587 26.2089 26.0505 26.2107Z" fill="#141312"/>
<path d="M56.3813 45.397C56.6058 45.2207 56.8302 45.0443 57.0547 44.8662C57.1758 45.0657 57.2951 45.2634 57.4216 45.5681C57.4287 45.6732 57.4145 45.7373 57.3753 45.7462C57.3379 45.7551 57.2595 45.7533 57.2221 45.6874C56.3849 45.5502 56.3403 45.6304 56.604 46.6974C56.7198 46.4979 56.8302 46.3073 56.9353 46.1203C56.9282 46.1256 56.9139 46.1274 56.93 46.1808C56.9816 46.2485 57.0155 46.261 57.0582 46.3251C57.1117 46.4712 57.1598 46.5638 57.2417 46.7081C57.3112 46.8007 57.3521 46.8399 57.3824 46.8862C57.3931 46.9023 57.3789 46.9361 57.3771 46.9611C56.9798 46.8809 56.4722 46.9237 56.2103 46.6903C55.7543 46.2859 56.0339 45.7961 56.3813 45.397Z" fill="#343433"/>
<path d="M56.3493 45.3848C56.034 45.7945 55.7525 46.2843 56.2085 46.6905C56.4704 46.9238 56.9781 46.8793 57.3753 46.9613C57.3789 46.9363 57.3914 46.9042 57.3807 46.8864C57.3504 46.8401 57.3112 46.8009 57.2916 46.6887C57.5018 46.6834 57.696 46.7457 57.8901 46.8098C57.4573 46.9808 56.987 47.3442 56.604 47.2676C56.2549 47.1982 55.8754 46.6976 55.7383 46.3057C55.6171 45.9494 55.6635 45.3955 56.3493 45.3848Z" fill="#E4E4E2"/>
<path d="M57.2613 45.7517C57.2613 45.7517 57.3379 45.7535 57.4092 45.7927C57.6426 45.798 57.8064 45.7624 57.9703 45.7285C57.9917 45.9993 58.0131 46.27 57.9899 46.5159C57.7779 45.8853 57.4056 46.1169 57.0511 46.2718C57.0155 46.2594 56.9817 46.2451 56.9924 46.1418C57.0405 45.9565 57.044 45.8621 57.0992 45.7624C57.1901 45.7552 57.2257 45.7535 57.2613 45.7517Z" fill="#E4E4E2"/>
<path d="M57.0583 46.3266C57.4057 46.1199 57.778 45.8884 57.9526 46.5706C57.9597 46.6775 57.9597 46.7113 57.9276 46.779C57.6996 46.7505 57.5055 46.6864 57.2596 46.6419C57.1599 46.567 57.1118 46.4726 57.0583 46.3266Z" fill="#F1F1F0"/>
<path d="M32.3683 5.41309C32.3505 5.419 32.3308 5.42688 32.3387 5.42294C32.3663 5.41308 32.3683 5.41309 32.3683 5.41309Z" fill="#060505"/>
<path d="M57.2242 45.6895C57.2277 45.7572 57.1903 45.759 57.0389 45.7643C56.859 45.8142 56.7949 45.8587 56.7307 45.905C56.802 45.9763 56.8733 46.0475 56.9445 46.1188C56.8341 46.3094 56.7218 46.5018 56.6061 46.6995C56.3424 45.6325 56.3852 45.5523 57.2242 45.6895Z" fill="#F1F1F0"/>
</svg>
